<svg width="56" height="56" viewBox="0 0 56 56" fill="none" xmlns="http://www.w3.org/2000/svg">
<g id="Age">
<g clip-path="url(#clip0_6277_84645)">
<g id="Group">
<path id="Vector" d="M45.5728 10.4087C40.1993 10.4087 35.7627 14.4946 35.2053 19.7227C39.1053 22.1421 41.7083 26.4622 41.7083 31.3796V38.4088C41.7083 40.973 40.5527 43.3302 38.6603 44.9006V54.3411C38.6603 55.2471 39.3949 55.9817 40.301 55.9817H50.8447C51.7508 55.9817 52.4853 55.2471 52.4853 54.3411V38.0245C54.5262 37.3376 55.9999 35.4062 55.9999 33.1368V20.8358C55.9999 15.0864 51.3222 10.4087 45.5728 10.4087ZM45.5728 10.4087C48.4475 10.4087 50.7864 8.06996 50.7864 5.19515C50.5243 -1.71188 40.6203 -1.70992 40.3593 5.19526C40.3593 8.06996 42.698 10.4087 45.5728 10.4087ZM33.2135 15.7389C33.2135 12.8641 30.8747 10.5253 27.9999 10.5253C21.0928 10.7874 21.0947 20.6914 28 20.9525C30.8746 20.9525 33.2135 18.6137 33.2135 15.7389Z" fill="url(#paint0_linear_6277_84645)"/>
<path id="Vector_2" d="M28.0004 20.9531C22.6269 20.9531 18.1902 25.039 17.6328 30.2671C21.5328 32.6865 24.1358 37.0066 24.1358 41.924V43.6812C24.1358 46.2453 22.9803 48.6026 21.0879 50.173V54.3417C21.0879 55.2478 21.8224 55.9823 22.7285 55.9823H33.2722C34.1783 55.9823 34.9129 55.2478 34.9129 54.3417V43.297C36.9537 42.6102 38.4274 40.6788 38.4274 38.4094V31.3802C38.4274 25.6307 33.7499 20.9531 28.0004 20.9531Z" fill="url(#paint1_linear_6277_84645)"/>
<path id="Vector_3" d="M10.427 31.4961C4.65795 31.4961 0 36.1656 0 41.9231V43.6804C0 45.9498 1.47372 47.8812 3.51455 48.568V54.3408C3.51455 55.2469 4.24911 55.9814 5.15517 55.9814H15.6989C16.605 55.9814 17.3395 55.2469 17.3395 54.3408V48.568C19.3804 47.8812 20.8541 45.9498 20.8541 43.6804V41.9231C20.8542 36.1549 16.1859 31.4961 10.427 31.4961Z" fill="url(#paint2_linear_6277_84645)"/>
<path id="Vector_4" d="M10.4284 31.4947C13.3031 31.4947 15.642 29.1559 15.642 26.2811C15.3799 19.3741 5.47592 19.376 5.21484 26.2812C5.21495 29.1559 7.55372 31.4947 10.4284 31.4947Z" fill="url(#paint3_linear_6277_84645)"/>
</g>
</g>
</g>
<defs>
<linearGradient id="paint0_linear_6277_84645" x1="8.26838" y1="29.1115" x2="41.7442" y2="29.1115" gradientUnits="userSpaceOnUse">
<stop stop-color="#07689F"/>
<stop offset="1" stop-color="#338DBF"/>
</linearGradient>
<linearGradient id="paint1_linear_6277_84645" x1="8.51269" y1="39.1643" x2="29.493" y2="39.1643" gradientUnits="userSpaceOnUse">
<stop stop-color="#07689F"/>
<stop offset="1" stop-color="#338DBF"/>
</linearGradient>
<linearGradient id="paint2_linear_6277_84645" x1="-9.14621" y1="44.2257" x2="11.8941" y2="44.2257" gradientUnits="userSpaceOnUse">
<stop stop-color="#07689F"/>
<stop offset="1" stop-color="#338DBF"/>
</linearGradient>
<linearGradient id="paint3_linear_6277_84645" x1="0.641689" y1="26.5048" x2="11.1619" y2="26.5048" gradientUnits="userSpaceOnUse">
<stop stop-color="#07689F"/>
<stop offset="1" stop-color="#338DBF"/>
</linearGradient>
<clipPath id="clip0_6277_84645">
<rect width="56" height="56" fill="white"/>
</clipPath>
</defs>
</svg>
