<svg width="116" height="74" viewBox="0 0 116 74" fill="none" xmlns="http://www.w3.org/2000/svg">
<path d="M102.535 72.9593C106.347 68.5912 111.352 62.5987 114.331 57.7028M114.331 57.7028C114.674 57.1388 109.869 55.9279 109.642 55.8908C104.68 55.0722 99.7633 54.928 94.7489 54.8887M114.331 57.7028C88.9089 76.3142 57.0746 75.1822 41.4401 59.0546C39.8906 57.4562 38.2057 55.7148 36.6831 53.831M36.6831 53.831C34.2582 50.831 32.2449 47.4698 31.845 43.7495C31.4761 40.316 32.4418 35.6878 35.3804 33.5857C40.8699 29.6593 48.2251 34.7613 48.0497 41.2638C47.8958 46.978 42.3127 53.2951 36.6831 53.831ZM36.6831 53.831C36.5643 53.8423 36.4455 53.851 36.3268 53.8571C7.66684 55.3291 -4.29523 23.7793 3.29402 1.5559" stroke="#3AB7FE" stroke-width="2" stroke-miterlimit="1.5" stroke-linecap="round" stroke-linejoin="round"/>
</svg>
