<svg width="82" height="100" viewBox="0 0 82 100" fill="none" xmlns="http://www.w3.org/2000/svg">
<path d="M34.6567 4.14041C36.2453 5.11078 36.2625 4.92433 34.7688 8.2728C33.8803 10.2305 29.8114 16.1845 28.9124 16.7599C28.003 17.3706 26.422 16.6324 26.0672 15.3776C25.7799 14.4111 25.9607 13.5455 27.1889 9.54345C29.0213 3.76731 29.9432 2.47074 31.9456 2.95121C32.6248 3.11486 33.8396 3.6676 34.6567 4.14041Z" fill="#3AB7FE"/>
<path d="M64.2335 18.9526C65.0335 19.6119 65.023 19.6471 61.9131 25.0817C59.9029 28.6213 58.7984 30.0168 57.2249 30.9281C55.915 31.7262 55.1264 31.4151 54.6023 29.9567C54.2551 28.9341 54.4073 27.9067 55.3159 24.0778L56.4196 19.4641L58.267 18.4045C59.967 17.4542 60.2552 17.3867 61.8286 17.8928C62.779 18.1754 63.8634 18.651 64.2335 18.9526Z" fill="#3AB7FE"/>
<path d="M42.5316 20.4292C42.9825 20.7166 43.0082 21.1456 42.5791 22.5887C41.2043 27.0834 38.0211 32.7644 36.6712 33.0526C35.6096 33.2732 33.9915 31.7578 33.7946 30.3584C33.6263 29.1208 35.7432 21.7437 36.6022 20.6583C37.7942 19.0973 40.1962 19.007 42.5316 20.4292Z" fill="#3AB7FE"/>
<path d="M72.2777 42.1464L73.6514 42.9379L72.994 44.5047C72.0845 46.5328 68.926 50.842 66.7295 52.9471C65.2768 54.354 64.8658 54.5766 63.8841 54.3996C62.9024 54.2226 62.7083 53.9734 62.4877 52.9117C62.1814 51.3649 63.0814 48.338 64.9708 44.3027C66.1572 41.8589 66.6024 41.2634 67.4281 40.9343C68.5526 40.5025 70.1222 40.8925 72.2777 42.1464Z" fill="#3AB7FE"/>
<path d="M23.1121 32.2748C23.5487 32.4813 23.8169 32.8675 23.7541 33.0787C23.3945 34.1593 20.6718 38.2916 18.9147 40.3359C16.2634 43.455 15.5613 44.0125 14.7232 43.61C13.5437 43.0678 13.4324 40.7362 14.3896 36.6152C15.1764 33.3248 15.4143 32.7826 16.4246 31.7038L17.5928 30.4805L19.9862 31.1922C21.2885 31.5794 22.7211 32.0437 23.1121 32.2748Z" fill="#3AB7FE"/>
<path d="M49.456 47.0055C50.1533 47.366 50.1818 47.5277 49.4854 48.968C47.0223 54.2884 43.0191 59.7639 41.8224 59.408C40.9073 59.1359 39.9285 57.2742 39.939 55.8216C39.9295 54.8228 40.3967 53.1228 41.3366 50.6058C42.6296 47.1593 42.8046 46.8283 43.9918 46.1853C45.0877 45.5917 45.552 45.5765 46.9846 46.0408C47.8892 46.3481 49.0193 46.799 49.456 47.0055Z" fill="#3AB7FE"/>
<path d="M27.5357 60.5602C28.2691 61.3145 27.7487 62.8071 25.5349 66.5161C23.5314 69.9045 21.9988 71.709 20.5338 72.3844C19.7328 72.7591 19.3599 72.7249 18.3877 72.1293C16.4576 71.0191 16.4766 70.182 18.4565 64.2965C19.4098 61.4769 20.3393 58.995 20.5181 58.7801C20.9072 58.2445 26.7775 59.7601 27.5357 60.5602Z" fill="#3AB7FE"/>
<path d="M61.0284 72.895L62.4172 74.1507L60.9636 76.5917C59.3206 79.2828 56.0604 83.6767 54.9303 84.6431C53.2702 86.1033 51.1651 83.9067 51.3231 80.9273C51.4859 78.4473 51.9083 77.1555 53.4989 74.6403C55.0334 72.1851 55.9743 71.4688 57.4307 71.5954C57.99 71.6468 58.7111 71.6697 59.0241 71.6478C59.3266 71.6611 60.2389 72.2005 61.0284 72.895Z" fill="#3AB7FE"/>
<path d="M37.2045 79.8304C37.2825 80.0834 37.9693 80.4792 38.7788 80.7199C40.0811 81.1071 40.1658 81.2089 39.7453 81.85C39.4685 82.2657 38.5752 83.724 37.738 85.1224C36.0532 87.9543 33.6863 90.8899 32.5238 91.5786C31.4526 92.2178 30.6041 91.8506 30.0733 90.5435C29.6805 89.5456 29.7632 88.8806 30.6214 85.9945C32.0238 81.278 32.626 80.1546 33.993 79.68C35.476 79.2015 37.0694 79.2539 37.2045 79.8304Z" fill="#3AB7FE"/>
</svg>
