<svg width="34" height="33" viewBox="0 0 34 33" fill="none" xmlns="http://www.w3.org/2000/svg">
<g id="lets-icons:insta">
<g id="Group">
<path id="Vector" d="M4.24805 15.125C4.24805 9.93988 4.24805 7.34662 5.90838 5.7365C7.5673 4.125 10.2391 4.125 15.5814 4.125H18.4147C23.757 4.125 26.4288 4.125 28.0877 5.7365C29.748 7.34662 29.748 9.93988 29.748 15.125V17.875C29.748 23.0601 29.748 25.6534 28.0877 27.2635C26.4288 28.875 23.757 28.875 18.4147 28.875H15.5814C10.2391 28.875 7.5673 28.875 5.90838 27.2635C4.24805 25.6534 4.24805 23.0601 4.24805 17.875V15.125Z" fill="white" stroke="#207DB1" stroke-width="2.46761"/>
<path id="Vector_2" d="M23.375 12.375C24.5486 12.375 25.5 11.4516 25.5 10.3125C25.5 9.17341 24.5486 8.25 23.375 8.25C22.2014 8.25 21.25 9.17341 21.25 10.3125C21.25 11.4516 22.2014 12.375 23.375 12.375Z" fill="#2480B4"/>
<path id="Vector_3" d="M16.998 20.625C19.3453 20.625 21.248 18.7782 21.248 16.5C21.248 14.2218 19.3453 12.375 16.998 12.375C14.6508 12.375 12.748 14.2218 12.748 16.5C12.748 18.7782 14.6508 20.625 16.998 20.625Z" fill="white" stroke="#207DB1" stroke-width="2.46761"/>
</g>
</g>
</svg>
