<svg width="30" height="31" viewBox="0 0 30 31" fill="none" xmlns="http://www.w3.org/2000/svg">
<g id="ri:linkedin-fill">
<path id="Vector" d="M8.63444 6.97275C8.63411 7.6272 8.37382 8.25472 7.91082 8.71725C7.44782 9.17979 6.82005 9.43946 6.1656 9.43913C5.51115 9.4388 4.88363 9.17851 4.42109 8.71551C3.95856 8.25251 3.69889 7.62473 3.69922 6.97028C3.69955 6.31583 3.95984 5.68832 4.42284 5.22578C4.88584 4.76324 5.51361 4.50358 6.16806 4.50391C6.82251 4.50423 7.45003 4.76453 7.91257 5.22753C8.3751 5.69052 8.63477 6.3183 8.63444 6.97275ZM8.70847 11.2664H3.77325V26.7136H8.70847V11.2664ZM16.5061 11.2664H11.5956V26.7136H16.4568V18.6075C16.4568 14.0918 22.342 13.6723 22.342 18.6075V26.7136H27.2155V16.9296C27.2155 9.31698 18.5049 9.60076 16.4568 13.3392L16.5061 11.2664Z" fill="white"/>
</g>
</svg>
