<svg width="48" height="48" viewBox="0 0 48 48" fill="none" xmlns="http://www.w3.org/2000/svg">
<g id="Frame" clip-path="url(#clip0_6204_89711)">
<path id="Vector" d="M24.0938 0C15.6595 0 8.625 6.79406 8.625 15.4688C8.625 18.7689 9.61669 21.7118 11.5199 24.4693L22.91 42.2424C23.4625 43.1064 24.7261 43.1048 25.2775 42.2424L36.717 24.4088C38.5793 21.7762 39.5625 18.685 39.5625 15.4688C39.5625 6.93928 32.6232 0 24.0938 0ZM24.0938 22.5C20.2169 22.5 17.0625 19.3456 17.0625 15.4688C17.0625 11.5919 20.2169 8.4375 24.0938 8.4375C27.9706 8.4375 31.125 11.5919 31.125 15.4688C31.125 19.3456 27.9706 22.5 24.0938 22.5Z" fill="white"/>
<path id="Vector_2" d="M35.0872 32.3164L28.0062 43.3871C26.1733 46.2448 22.004 46.2354 20.1799 43.3898L13.0873 32.3193C6.84694 33.7621 3 36.4052 3 39.5637C3 45.0446 13.8682 48.0012 24.0938 48.0012C34.3193 48.0012 45.1875 45.0446 45.1875 39.5637C45.1875 36.403 41.3352 33.7585 35.0872 32.3164Z" fill="white"/>
</g>
<defs>
<clipPath id="clip0_6204_89711">
<rect width="48" height="48" fill="white"/>
</clipPath>
</defs>
</svg>
