<svg width="171" height="46" viewBox="0 0 171 46" fill="none" xmlns="http://www.w3.org/2000/svg">
<path d="M22.4158 41.1287V40.8234L22.4248 40.6014V39.9537L22.3979 39.7409L22.3532 39.5466L22.1742 39.4633L21.9774 39.4355H21.539L21.2885 39.4448L21.1542 39.5188L21.0379 39.6761L20.9485 39.8704L20.8411 40.1295L20.7069 40.3886L20.6085 40.5829L20.5637 40.7124L20.4563 40.9067L20.3669 41.101L20.3042 41.2213L20.2506 41.3601L20.17 41.5451L20.0627 41.7394L19.8837 42.1188L19.83 42.2576L19.7495 42.4241L19.669 42.6184L19.5527 42.6924L19.4721 42.6184L19.4095 42.4889L19.3379 42.3593L19.2574 42.165L19.159 41.9707L19.0516 41.7764L18.8995 41.4803L18.8011 41.3045L18.6758 41.064L18.6221 40.9437L18.5595 40.8142L18.4432 40.6106L18.3 40.333L18.2016 40.111L18.139 39.9722L18.0316 39.7779L17.8974 39.6113L17.799 39.5281L17.6021 39.4818L17.4053 39.4633H17.2442L17.1011 39.4726L16.9669 39.5096L16.8595 39.5836L16.8148 39.7131L16.7969 39.8982L16.8148 40.1387L16.8237 40.4811L16.8148 40.6939L16.8237 40.9067L16.8058 41.1935L16.8237 41.3416L16.8327 41.4988L16.8148 41.6469L16.8327 41.8042V42.1095L16.8416 42.4611L16.8327 42.6924L16.8237 42.8682L16.8148 43.007L16.8327 43.1458L16.8237 43.2846L16.8148 43.4234L16.8327 43.5622V43.7009L16.8148 43.9137L16.8327 44.1266V44.2653L16.9042 44.4041L16.9758 44.4781H17.0921L17.3069 44.4874L17.4769 44.4689L17.5216 44.3949L17.5485 44.2283L17.5663 44.0155L17.4858 43.7287L17.4948 43.4234V42.9237L17.4858 42.7849L17.4948 42.6462L17.5037 42.4981L17.4858 42.3408L17.4948 42.202L17.5037 41.9892L17.4858 41.7579V41.5636L17.5127 41.4803L17.5932 41.5636L17.7274 41.8319L17.8348 42.0355L17.9332 42.2298L18.0406 42.3963L18.13 42.6091L18.2195 42.7757L18.3537 43.0255L18.4521 43.2106L18.5237 43.3956L18.649 43.6454L18.7563 43.8397L18.8906 44.108L19.0158 44.2931L19.1321 44.3671L19.2932 44.3856L19.4185 44.3301L19.5169 44.1913L19.6063 44.0248L19.6779 43.8675L19.7763 43.7009L19.839 43.5344L19.9195 43.3493L20.0537 43.0903L20.1432 42.896L20.2327 42.7017L20.34 42.4981L20.4385 42.3038L20.519 42.1095L20.5816 41.9707L20.6532 41.8319L20.7785 41.5729L20.8858 41.3231L20.9842 41.1473L21.0737 41.0362L21.0916 41.175L21.0827 41.3786V41.7949L21.1006 41.943L21.0916 42.0818L21.1006 42.2298V42.6184L21.0916 42.7849L21.0737 43.0625L21.0916 43.2013V43.3401L21.0827 43.5529L21.0916 43.8305L21.0737 44.0433L21.1185 44.2098L21.2616 44.3486L21.4674 44.3949L21.6285 44.4041H21.7627L22.1206 44.3949L22.2727 44.3301L22.3711 44.1358L22.389 43.923L22.38 43.6824V43.4511L22.389 43.3123L22.3979 43.0903L22.389 42.8682L22.38 42.7202V42.5814L22.3979 42.4334L22.389 42.2853V41.9985L22.4069 41.8412L22.3979 41.7024L22.4158 41.2768V41.1287ZM22.3621 43.812L22.3442 43.7842L22.3711 43.7935L22.3621 43.812Z" fill="#07689F"/>
<path d="M29.2492 39.8042L29.2313 39.6654L29.1687 39.5451L29.0613 39.4711L28.9182 39.4526L28.7034 39.4434H28.5155L28.3187 39.4526L28.0682 39.4711L27.9519 39.6099L27.934 39.8042L27.9519 39.9522L27.9608 40.1095L27.9787 40.3408L27.9698 40.5629L27.9787 40.8035L27.9608 41.0255L27.9698 41.1828L27.9608 41.3216V41.4697L27.9698 41.6177L27.9877 41.7657V42.0618L27.9787 42.2191V42.3394L27.9608 42.4874L27.9429 42.654L27.9161 42.7928L27.8892 42.9408L27.8355 43.0796L27.7908 43.2184L27.7103 43.3387L27.6208 43.4497L27.5224 43.5515L27.3882 43.6255L27.254 43.6717L27.0571 43.6902L26.8334 43.681L26.7082 43.6625L26.574 43.6255L26.4487 43.5792L26.3324 43.5052L26.2429 43.4219L26.1534 43.3201L26.064 43.2091L25.9834 43.0056L25.9298 42.7928L25.9029 42.6447L25.885 42.5059L25.8492 42.3579L25.8313 42.2099L25.8403 42.0618L25.8224 41.923L25.8313 41.775V41.6269L25.8134 41.4882L25.8045 41.3309V41.1921L25.8224 41.044L25.8134 40.9053L25.8224 40.7665V40.6092L25.8313 40.4704V40.3223L25.8224 40.1836V39.8412L25.8134 39.6377L25.715 39.4711L25.4913 39.4434H25.2677L25.1424 39.4989L25.0977 39.6192L25.1155 39.7672L25.1245 39.906L25.1334 40.054V40.2021L25.1245 40.3501L25.1066 40.4889L25.1245 40.6277L25.1066 40.785V40.9238L25.1155 41.0718L25.0977 41.2106L25.1155 41.3586L25.0977 41.5899V42.4504L25.1245 42.5892L25.1424 42.7372L25.1871 42.8853L25.214 43.0241L25.2587 43.1721L25.3124 43.3016L25.384 43.4404L25.4466 43.57L25.5182 43.681L25.6077 43.792L25.7061 43.9031L25.8134 43.9956L25.9119 44.0696L26.0282 44.1436L26.2787 44.2547L26.404 44.3009L26.5292 44.3379L26.6545 44.3564L26.7887 44.3749L26.9229 44.3842L27.1108 44.3934L27.3077 44.3842L27.4419 44.3657L27.7103 44.3194L27.8534 44.2824L27.9698 44.2361L28.104 44.1806L28.3545 44.0511L28.4619 43.9771L28.5692 43.8938L28.7661 43.6995L28.8555 43.5885L28.9271 43.4682L28.9898 43.3572L29.0613 43.2276L29.1061 43.0981L29.1687 42.9686L29.1955 42.8298L29.2403 42.691L29.2492 42.5522L29.2671 42.3301V41.2198L29.2761 40.6277V40.4149L29.2671 40.1928L29.2761 39.98L29.2492 39.8042ZM25.5629 42.3116L25.5182 42.2469L25.5003 42.1173L25.554 42.0988L25.5808 42.2099L25.5629 42.3116Z" fill="#07689F"/>
<path d="M35.7933 42.5169L35.7217 42.3967L35.6233 42.2856L35.5249 42.1931L35.4175 42.1098L35.3012 42.0358L35.1849 41.971L35.0596 41.9063L34.9522 41.8508L34.5585 41.6935L34.4333 41.638L34.1022 41.5269L33.9143 41.4529L33.6728 41.3419L33.5296 41.2771L33.4222 41.2123L33.297 41.1476L33.1985 41.0643L33.1001 40.9625L33.0196 40.8422L32.9659 40.722L32.957 40.5184L33.0196 40.3241L33.1001 40.2131L33.2164 40.1298L33.4133 40.0835L33.6012 40.0743L33.7354 40.0835L33.8696 40.1113L34.0038 40.1391L34.1112 40.1761L34.2364 40.2316L34.3617 40.2963L34.4691 40.3611L34.6212 40.4999L34.7554 40.6479L34.8896 40.7867L35.0864 40.87L35.2743 40.8145L35.3638 40.7127L35.4533 40.6017L35.5517 40.4814L35.6054 40.3426L35.6322 40.2038L35.5517 40.028L35.3906 39.8985L35.2922 39.8152L35.1759 39.7412L34.8001 39.5561L34.657 39.5006L34.5317 39.4636L34.3885 39.4266L34.2633 39.3989L34.1201 39.3803L33.9233 39.3711L33.7085 39.3803H33.5743L33.4312 39.4081L33.3059 39.4266L33.1628 39.4544L33.0285 39.4914L32.9033 39.5376L32.787 39.5932L32.6617 39.6487L32.4201 39.7967L32.3128 39.88L32.2322 39.9725L32.1428 40.0835L32.0533 40.1946L31.9728 40.3148L31.8743 40.5739L31.8475 40.7127L31.8207 40.9348L31.8475 41.2401L31.8922 41.4436L31.9549 41.5547L32.0533 41.6657L32.1517 41.749L32.4649 42.0081L32.5812 42.0728L32.7512 42.1838L33.0554 42.3319L33.2433 42.4059L33.4401 42.4707L33.8249 42.6002L33.9412 42.6465L34.1828 42.7575L34.3528 42.8593L34.5228 42.9796L34.6212 43.0906L34.657 43.2849L34.5943 43.4514L34.478 43.5162L34.3528 43.5625L34.2364 43.5902L34.0843 43.6087H33.9501L33.798 43.5902L33.6549 43.5625L33.5296 43.5255L33.4043 43.4699L33.0196 43.3127L32.9122 43.2479L32.778 43.1831L32.6528 43.1091L32.5454 43.0351L32.4201 42.9518L32.3217 42.8685L32.1785 42.739L32.0264 42.6557L31.8922 42.702L31.7849 42.776L31.6954 42.887L31.6328 43.0073L31.5701 43.1369L31.5343 43.2756L31.5254 43.4422L31.588 43.5995L31.7222 43.7198L31.8743 43.8493L32.1338 43.9973L32.3843 44.1361L32.5901 44.2194L32.7243 44.2657L32.8675 44.3027L33.0017 44.3397L33.1359 44.3582L33.2701 44.3859L33.4133 44.4044L33.5654 44.4137H33.9859L34.2633 44.3859L34.4154 44.3674L34.5585 44.3397L34.8091 44.2749L34.9433 44.2379L35.0685 44.1824L35.2206 44.0806L35.3638 43.9696L35.4622 43.8678L35.5428 43.7753L35.6143 43.655L35.7128 43.4792L35.8022 43.2941L35.8291 43.1646L35.847 43.0073L35.8649 42.8038L35.838 42.6465L35.7933 42.5169Z" fill="#07689F"/>
<path d="M39.6764 40.1003L39.6585 39.9615L39.6317 39.7487L39.5869 39.5544L39.4169 39.4711L39.2201 39.4434H39.0859L38.6475 39.4526L38.4417 39.5266L38.3433 39.6839V39.906L38.3522 40.1373L38.3433 40.3779L38.3343 40.5907V41.1458L38.3254 41.2939L38.3164 41.4511L38.3254 41.5992L38.3433 41.7565V42.0618L38.3343 42.2191L38.3254 42.4134L38.3433 42.6447L38.3343 42.802L38.3433 42.9408L38.3522 43.0796V43.2184L38.3433 43.3572L38.3343 43.4959L38.3433 43.6347V43.8568L38.3343 44.0881L38.379 44.2269L38.5043 44.3564L38.719 44.4119L38.9069 44.4212H39.0322L39.399 44.4119L39.5332 44.3472L39.6406 44.1529L39.6764 43.9401L39.6585 43.7088L39.6675 43.4774L39.6585 43.3387L39.6675 43.1258V42.617L39.6764 42.4689L39.6675 42.3301L39.6764 42.1821V42.0433L39.6675 41.8953V41.7565L39.6764 41.5344L39.6675 41.3031L39.6854 41.1551V40.8497L39.6764 40.6277V40.3408V40.1003ZM39.5869 43.7735L39.6048 43.8013L39.5869 43.7735Z" fill="#07689F"/>
<path d="M43.596 41.4155L43.6228 41.2767L43.6675 41.1286L43.7123 40.9991L43.7749 40.8603L43.8286 40.7215L43.9002 40.6013L43.9896 40.4902L44.0791 40.3792L44.1865 40.2774L44.2849 40.1941L44.4191 40.1109L44.5265 40.0554L44.6696 40.0184L44.8038 39.9906L45.0186 39.9721L45.2065 39.9813L45.3496 40.0091L45.4749 40.0461L45.6181 40.0924L45.8686 40.2219L45.967 40.2959L46.0833 40.3885L46.1728 40.4902L46.2533 40.6013L46.3786 40.6753L46.5217 40.6383L46.6738 40.4902L46.7365 40.2959L46.6738 40.1294L46.5575 40.0091L46.3607 39.8518L46.2533 39.7778L46.0833 39.6853L45.7612 39.5372L45.6091 39.491L45.4749 39.454L45.3317 39.4354L45.1438 39.4077L44.9023 39.3984L44.5712 39.4077L44.4549 39.4262L44.3117 39.4447L44.1686 39.4632L44.0254 39.491L43.7839 39.565L43.6496 39.602L43.5154 39.6575L43.3902 39.713L43.2739 39.7778L43.1665 39.8518L43.0591 39.9258L42.9517 40.0184L42.746 40.2034L42.6744 40.3144L42.5938 40.4255L42.5133 40.5365L42.4417 40.666L42.3344 40.9158L42.3075 41.0454L42.2628 41.1842L42.2181 41.323L42.2002 41.4525L42.1733 41.6005L42.1644 41.7301L42.1554 41.8781L42.1465 42.0909L42.1554 42.3037V42.4425L42.1912 42.5813L42.227 42.7201L42.2807 42.8589L42.3344 42.9884L42.397 43.1179L42.4507 43.2475L42.5312 43.3677L42.6028 43.4788L42.7907 43.6823L42.8981 43.7841L43.0144 43.8766L43.1844 43.9877L43.3454 44.1079L43.4886 44.1727L43.7481 44.2652L43.8823 44.3115L44.0075 44.3393L44.1328 44.367L44.276 44.3855L44.4191 44.404L44.6249 44.4133L44.8486 44.404L44.9917 44.3855L45.1438 44.367L45.287 44.33L45.4302 44.293L45.6986 44.2005L45.8417 44.1357L46.1996 43.8951L46.3696 43.7564L46.5217 43.5991L46.5933 43.4973L46.6738 43.377V43.2382L46.6381 43.0994L46.4233 42.9236L46.2712 42.9144L46.146 42.9976L46.0744 43.1087L45.976 43.2197L45.8775 43.3122L45.7881 43.3955L45.6717 43.4695L45.5465 43.5343L45.4212 43.5713L45.287 43.6083L45.0902 43.6176L44.8844 43.5991L44.7412 43.5806L44.607 43.5435L44.4817 43.4973L44.3475 43.4418L44.2312 43.3677L44.106 43.2845L43.9986 43.1827L43.9181 43.0717L43.8286 42.9606L43.757 42.8311L43.6586 42.5628L43.6049 42.424L43.5781 42.2852V42.1372L43.5602 41.9151L43.5781 41.7023L43.596 41.4155Z" fill="#07689F"/>
<path d="M55.8879 42.5072L55.8252 42.3869L55.7268 42.2851L55.6194 42.1926L55.5121 42.1093L55.3958 42.0261L55.2794 41.9613L55.1542 41.8965L55.0558 41.841L54.6621 41.6837L54.5279 41.6374L54.2058 41.5264L54.0089 41.4431L53.7673 41.3414L53.6331 41.2766L53.5257 41.2118L53.3915 41.1378L53.2931 41.0545L53.1947 40.9528L53.1142 40.8417L53.0694 40.7214L53.0515 40.5179L53.1142 40.3143L53.1947 40.2126L53.32 40.1293L53.5079 40.0738L53.6958 40.0645L53.8389 40.083L53.9642 40.1015L54.1073 40.1293L54.2058 40.1755L54.34 40.2218L54.4652 40.2866L54.5636 40.3606L54.7157 40.4994L54.85 40.6474L54.9842 40.777L55.181 40.8602L55.3689 40.8047L55.4673 40.7122L55.5568 40.6012L55.6463 40.4716L55.7089 40.3421L55.7358 40.1941L55.6463 40.0275L55.4942 39.8887L55.3868 39.8147L55.2705 39.7314L54.8947 39.5464L54.7605 39.5001L54.6352 39.4539L54.4921 39.4261L54.3579 39.3983L54.2236 39.3798L54.0268 39.3613L53.8121 39.3706L53.6689 39.3798L53.5257 39.3983L53.4094 39.4261L53.2573 39.4539L53.1321 39.4909L52.9979 39.5279L52.8815 39.5834L52.7563 39.6389L52.5236 39.7962L52.4073 39.8795L52.3268 39.972L52.2373 40.0738L52.1479 40.1848L52.0763 40.3143L51.9689 40.5642L51.9421 40.7122L51.9242 40.925L51.9421 41.2303L51.9868 41.4431L52.0494 41.5542L52.1479 41.656L52.2552 41.7485L52.5684 41.9983L52.6757 42.0723L52.8458 42.1741L53.1589 42.3221L53.3468 42.3962L53.5347 42.4702L53.9194 42.5997L54.0447 42.646L54.2773 42.757L54.4563 42.8495L54.6173 42.9791L54.7157 43.0901L54.7605 43.2751L54.6889 43.4509L54.5815 43.5157L54.4563 43.562L54.34 43.5897L54.1789 43.6082H54.0536L53.8926 43.5897L53.7584 43.5527L53.6331 43.5157L53.4989 43.4694L53.1142 43.3029L53.0068 43.2381L52.8726 43.1826L52.7563 43.1086L52.64 43.0253L52.5236 42.9513L52.4163 42.868L52.2821 42.7385L52.121 42.6552L51.9868 42.6922L51.8794 42.7755L51.79 42.8773L51.7273 42.9976L51.6647 43.1363L51.6379 43.2751L51.6289 43.4324L51.6915 43.599L51.8168 43.71L51.9779 43.8488L52.2284 43.9968L52.4879 44.1264L52.6936 44.2189L52.8189 44.2559L52.9621 44.3022L53.1052 44.3392L53.2305 44.3577L53.3736 44.3854L53.5079 44.4039L53.6689 44.4132H54.0805L54.3579 44.3854L54.51 44.3669L54.6531 44.3392L54.9126 44.2744L55.0468 44.2281L55.1721 44.1819L55.3242 44.0801L55.4584 43.9691L55.5568 43.8673L55.6463 43.7655L55.7089 43.6545L55.8163 43.4787L55.9058 43.2936L55.9326 43.1549L55.9415 42.9976L55.9594 42.8033L55.9415 42.6367L55.8879 42.5072Z" fill="#07689F"/>
<path d="M59.6448 41.4062L59.6716 41.2674L59.7164 41.1286L59.7611 40.9899L59.8237 40.8603L59.8774 40.7215L59.9401 40.6013L60.0385 40.4902L60.119 40.3699L60.2353 40.2774L60.3248 40.1849L60.4679 40.1109L60.5753 40.0554L60.7095 40.0091L60.8527 39.9813L61.0585 39.9721H61.2553L61.3895 40.0091L61.5237 40.0369L61.6669 40.0924L61.9174 40.2219L62.0158 40.2959L62.1232 40.3884L62.2127 40.4902L62.3022 40.6013L62.4185 40.6753L62.5706 40.6383L62.7137 40.4902L62.7853 40.2959L62.7227 40.1294L62.5974 40.0091L62.4095 39.8518L62.3022 39.7778L62.1232 39.676L61.8011 39.5372L61.6579 39.491L61.5237 39.4539L61.3806 39.4262L61.1927 39.4077L60.9422 39.3984L60.62 39.4077L60.5037 39.4262L60.3516 39.4354L60.2174 39.4539L60.0743 39.491L59.8237 39.5557L59.6985 39.602L59.5553 39.6575L59.439 39.713L59.3227 39.7778L59.2064 39.8518L59.1079 39.9258L59.0006 40.0091L58.7858 40.2034L58.7232 40.3144L58.6427 40.4255L58.5622 40.5365L58.4906 40.6568L58.3743 40.9158L58.3474 41.0454L58.3116 41.1749L58.2579 41.3229L58.249 41.4525L58.2222 41.5913L58.2132 41.7301L58.1953 41.8688V42.0816L58.2043 42.2945V42.4425L58.24 42.5813L58.2758 42.7201L58.3206 42.8589L58.3743 42.9884L58.4458 43.1179L58.4995 43.2382L58.58 43.3677L58.6516 43.4788L58.8395 43.6823L58.9469 43.7841L59.0543 43.8766L59.2332 43.9876L59.3943 44.0987L59.5285 44.1634L59.7969 44.2652L59.9311 44.3115L60.0564 44.3392L60.1816 44.367L60.3248 44.3855L60.4679 44.404H60.6737H60.8885L61.0316 44.3855L61.1837 44.367L61.3358 44.33L61.479 44.293L61.7385 44.1912L61.8906 44.1264L62.2485 43.8951L62.4185 43.7563L62.5706 43.599L62.6422 43.488L62.7227 43.377V43.2382L62.6869 43.0902L62.4722 42.9236L62.3201 42.9051L62.1858 42.9976L62.1232 43.1087L62.0248 43.2104L61.9264 43.303L61.8279 43.3955L61.7206 43.4695L61.5953 43.525L61.4701 43.5713L61.3269 43.6083H61.139L60.9332 43.599L60.7901 43.5805L60.6469 43.5435L60.5306 43.488L60.3964 43.4325L60.2801 43.3677L60.1548 43.2752L60.0474 43.1827L59.9669 43.0717L59.8774 42.9606L59.7969 42.8311L59.7074 42.5628L59.6448 42.4147L59.6269 42.2759L59.6179 42.1372L59.609 41.9151L59.6269 41.693L59.6448 41.4062Z" fill="#07689F"/>
<path d="M69.4767 39.5466L69.2978 39.4726L69.1099 39.4448L68.9846 39.4355L68.6536 39.4448L68.3404 39.5188L68.251 39.6761L68.242 39.9074L68.2241 40.1387L68.2152 40.37L68.2331 40.5921V40.7124L68.2152 40.9067L68.2241 41.138L68.2331 41.2953L68.1167 41.3693L67.8125 41.3786H67.0789L66.7925 41.3878L66.6494 41.3786L66.6046 41.3693V41.286L66.6225 41.1473L66.6136 41.0085L66.6225 40.7216L66.6136 40.4348L66.6225 40.296L66.6046 40.1387L66.6136 39.9814L66.6225 39.7871L66.551 39.5558L66.3989 39.4355L65.8978 39.4448H65.5131L65.3789 39.5373L65.2804 39.6854L65.2715 39.8704V40.0647L65.2804 40.2035L65.2715 40.3978L65.2894 40.6846L65.2715 40.9067V41.5636L65.2804 41.7764L65.2715 41.906L65.2894 42.0447V42.1835L65.2804 42.3871L65.2983 42.5906L65.2804 42.8775L65.2983 43.081L65.2804 43.3031V43.8952L65.2983 44.108L65.361 44.3024L65.5399 44.3764L65.7189 44.4041H66.1573L66.4615 44.3486L66.5689 44.2376L66.6136 44.108V43.9785L66.6315 43.7657L66.6136 43.5437L66.6315 43.3956L66.6046 43.1736L66.6225 42.9607L66.6046 42.822L66.6136 42.6184L66.6225 42.3871L66.6136 42.239L66.6404 42.165L66.6941 42.1465H68.072L68.1973 42.239L68.242 42.4148V42.7942L68.2241 42.933V43.4881L68.242 43.6177L68.2331 43.8305L68.2241 44.0618L68.2599 44.2006L68.3941 44.3301L68.6178 44.3856L68.8594 44.3949H69.2799L69.432 44.3301L69.5304 44.1358L69.5483 43.923L69.5573 43.6917L69.5483 43.4604V43.1088L69.5662 42.8867L69.5573 42.7387V42.5999L69.5483 42.4519L69.5573 42.3038L69.5483 42.1558V41.7209L69.5662 41.4989L69.5483 41.2675V40.9622L69.5662 40.5921L69.5573 40.3053L69.5752 40.0832V39.9444L69.5573 39.7224L69.4767 39.5466ZM65.352 40.0647L65.3431 40.0462L65.361 40.0277L65.352 40.0647ZM69.5036 43.8027L69.4946 43.775L69.5125 43.7842L69.5036 43.8027Z" fill="#07689F"/>
<path d="M77.4785 41.6189L77.4427 41.4802L77.4337 41.3414L77.389 41.2026L77.3442 41.073L77.2995 40.9343L77.2279 40.814L77.1564 40.6844L77.1027 40.5734L77.0311 40.4531L76.8521 40.2403L76.7537 40.1385L76.6464 40.046L76.4227 39.8795L76.2974 39.8054L76.1721 39.7314L76.0469 39.6667L75.9216 39.6111L75.7874 39.5649L75.6532 39.5186L75.5279 39.4816L75.3848 39.4446L75.2595 39.4168L75.1253 39.3983L74.9911 39.3798L74.8479 39.3706L74.6421 39.3613L74.2842 39.3798L74.15 39.3983L74.0158 39.4168L73.8906 39.4446L73.7564 39.4816L73.6132 39.5186L73.479 39.5649L73.3716 39.6111L73.2285 39.6667L73.0495 39.7684L72.7632 39.9627L72.5753 40.1478L72.4679 40.2496L72.3785 40.3513L72.3069 40.4624L72.2085 40.5734L72.1369 40.6937L72.0653 40.814L72.0116 40.9435L71.9669 41.073L71.9221 41.2026L71.8774 41.3414L71.8595 41.4802L71.8237 41.6189L71.8148 41.7577V41.9705L71.7969 42.1833L71.8148 42.3221L71.8416 42.4609L71.8774 42.5997L71.9579 42.868L72.0206 42.9976L72.0832 43.1178L72.1637 43.2474L72.3158 43.4787L72.4053 43.5897L72.5127 43.6915L72.6111 43.784L72.7185 43.8673L72.8348 43.9506L72.969 44.0246L73.0942 44.0986L73.2195 44.1541L73.3537 44.2096L73.4879 44.2559L73.6221 44.3022L73.7564 44.3392L73.8906 44.3669L74.1679 44.4132L74.3021 44.4317L74.4364 44.441L74.6511 44.4502L74.8658 44.441L75.0269 44.4317L75.1611 44.4132L75.4385 44.3669L75.5727 44.3299L75.7069 44.2929L75.9842 44.2004L76.1185 44.1541L76.2437 44.0894L76.369 44.0153L76.4674 43.9413L76.5748 43.858L76.6911 43.7748L76.7985 43.6822L76.9953 43.4787L77.0669 43.3677L77.1385 43.2566L77.21 43.1363L77.2816 43.0068L77.3353 42.8773L77.3711 42.7385L77.4158 42.5997L77.4516 42.4609L77.4785 42.3221L77.4964 42.1833V41.9705L77.4874 41.7577L77.4785 41.6189ZM76.0916 42.0261L76.0558 42.1648L76.0469 42.3036L76.0111 42.4424L75.9842 42.5812L75.9216 42.7107L75.8858 42.8495L75.8232 42.9791L75.7337 43.0993L75.6621 43.2104L75.5727 43.3214L75.4832 43.4232L75.3669 43.5064L75.2595 43.5805L75.1432 43.6452L75 43.6915L74.8748 43.7193L74.669 43.7378L74.4721 43.7193L74.32 43.6915L74.1858 43.6452L74.0695 43.5805L73.9621 43.5064L73.8369 43.4139L73.7653 43.3121L73.6579 43.2011L73.5863 43.0901L73.5148 42.9698L73.4611 42.8403L73.3895 42.7015L73.3448 42.5627L73.2911 42.2944L73.2732 42.1556L73.2553 42.0168L73.2464 41.804L73.2553 41.5912L73.2732 41.4524L73.2821 41.3136L73.3179 41.1748L73.3627 41.036L73.4074 40.9065L73.4521 40.7677L73.5237 40.6474L73.5863 40.5271L73.6579 40.4161L73.7653 40.3143L73.8548 40.2126L73.9621 40.1293L74.0964 40.0553L74.2037 39.9998L74.3379 39.9535L74.4542 39.9257L74.66 39.9072L74.8569 39.9165L74.9911 39.9535L75.1253 39.9998L75.2506 40.0553L75.3579 40.1293L75.4653 40.2126L75.5727 40.3051L75.7516 40.5179L75.8232 40.6382L75.9395 40.8972L75.9663 41.0268L76.0111 41.1656L76.0558 41.3044V41.4431L76.0737 41.5819L76.0916 41.7947V42.0261Z" fill="#07689F"/>
<path d="M85.2195 41.6189L85.1837 41.4802L85.1748 41.3414L85.13 41.2026L85.0853 41.073L85.0406 40.9343L84.969 40.814L84.8974 40.6844L84.8437 40.5734L84.7721 40.4531L84.5932 40.2403L84.4948 40.1385L84.3874 40.046L84.1637 39.8795L84.0385 39.8054L83.9132 39.7314L83.7879 39.6667L83.6627 39.6111L83.5285 39.5649L83.3942 39.5186L83.269 39.4816L83.1258 39.4446L83.0006 39.4168L82.8664 39.3983L82.7321 39.3798L82.589 39.3706L82.3832 39.3613L82.0253 39.3798L81.8911 39.3983L81.7569 39.4168L81.6316 39.4446L81.4974 39.4816L81.3542 39.5186L81.22 39.5649L81.1127 39.6111L80.9695 39.6667L80.7906 39.7684L80.5042 39.9627L80.3164 40.1478L80.209 40.2496L80.1195 40.3513L80.0479 40.4624L79.9495 40.5734L79.8779 40.6937L79.8064 40.814L79.7616 40.9528L79.7169 41.0823L79.6721 41.2118L79.6274 41.3506L79.6095 41.4894L79.5737 41.6282L79.5648 41.767V41.9798L79.5469 42.1926L79.5648 42.3314L79.5916 42.4702L79.6274 42.609L79.7079 42.8773L79.7706 43.0068L79.8332 43.1271L79.9137 43.2566L80.0658 43.4879L80.1553 43.599L80.2627 43.7007L80.3611 43.7933L80.4685 43.8765L80.5848 43.9598L80.719 44.0338L80.8442 44.1079L80.9695 44.1634L81.1037 44.2189L81.2379 44.2651L81.3721 44.3114L81.5064 44.3484L81.6406 44.3762L81.9179 44.4224L82.0521 44.4409L82.1864 44.4502L82.4011 44.4595L82.6158 44.4502L82.7769 44.4409L82.9111 44.4224L83.1885 44.3762L83.3227 44.3392L83.4569 44.3022L83.7343 44.2096L83.8685 44.1634L83.9937 44.0986L84.119 44.0246L84.2264 43.9506L84.3337 43.8673L84.45 43.784L84.5485 43.6915L84.7453 43.4879L84.8169 43.3769L84.8885 43.2659L84.96 43.1456L85.0316 43.0161L85.0853 42.8865L85.1211 42.7477L85.1658 42.609L85.2016 42.4702L85.2285 42.3314L85.2464 42.1926V41.9798L85.2374 41.767L85.2195 41.6189ZM83.8237 42.026L83.7879 42.1648L83.779 42.3036L83.7432 42.4424L83.7164 42.5812L83.6537 42.7107L83.6179 42.8495L83.5553 42.9791L83.4658 43.0993L83.3942 43.2104L83.3048 43.3214L83.2153 43.4232L83.099 43.5064L82.9916 43.5805L82.8753 43.6452L82.7321 43.6915L82.6069 43.7193L82.4011 43.7378L82.2042 43.7193L82.0521 43.6915L81.9179 43.6452L81.8016 43.5805L81.6942 43.5064L81.569 43.4139L81.4974 43.3121L81.39 43.2011L81.3185 43.0901L81.2469 42.9698L81.1932 42.8403L81.1216 42.7015L81.0769 42.5627L81.0232 42.2944L81.0053 42.1556L80.9874 42.0168L80.9785 41.804L80.9874 41.5912L81.0053 41.4524L81.0142 41.3136L81.05 41.1748L81.0948 41.036L81.1395 40.9065L81.1842 40.7677L81.2558 40.6474L81.3185 40.5271L81.39 40.4161L81.4974 40.3143L81.5869 40.2126L81.6942 40.1293L81.8285 40.0553L81.9358 39.9998L82.07 39.9535L82.1864 39.9257L82.3921 39.9072L82.589 39.9165L82.7232 39.9535L82.8574 39.9998L82.9827 40.0553L83.09 40.1293L83.1974 40.2126L83.3048 40.3051L83.4837 40.5179L83.5553 40.6382L83.6716 40.8972L83.6985 41.0268L83.7432 41.1656L83.7879 41.3044V41.4431L83.8058 41.5819L83.8237 41.7947V42.026Z" fill="#07689F"/>
<path d="M90.765 43.5992L90.6666 43.5899L90.4877 43.6084H89.3066L89.1009 43.5622L89.0293 43.4696L89.0382 43.3494V43.044L89.0293 42.7387L89.0382 42.5721V42.4519L89.0203 42.3408L89.0382 42.0262V41.8875L89.0293 41.7302L89.0472 41.4989V41.2768L89.0293 41.1195L89.0472 40.9715L89.0382 40.8142L89.0472 40.6014L89.0293 40.37L89.0472 40.2405L89.0382 40.148L89.0472 40.0462V39.9259L89.0203 39.7316L88.9577 39.5466L88.7877 39.4633L88.573 39.4355H88.3851L88.0451 39.4448L87.8303 39.4726L87.7767 39.5096L87.7498 39.5466L87.714 39.6484L87.723 39.7224L87.714 39.7686V39.8241L87.723 39.8982L87.714 40.0832L87.723 40.3238L87.714 40.5458L87.7051 40.7401L87.714 40.9437L87.7051 41.1195V41.286L87.714 41.4341V41.5914V41.7394L87.7051 41.8967V42.202L87.714 42.3686L87.723 42.5074V42.6369L87.714 42.7942L87.723 42.933L87.714 43.0718V43.4881V43.6177V43.8305L87.7051 44.0525L87.7319 44.1913L87.8124 44.3116L87.893 44.3579L87.9198 44.3764L88.0003 44.3856L88.0719 44.3949L88.3672 44.4041H88.5193L89.5035 44.3949L90.094 44.4041H90.4429L90.6666 44.3486L90.8098 44.1543L90.8724 43.8952L90.8635 43.7009L90.765 43.5992Z" fill="#07689F"/>
<path d="M106.191 10.4574C108.017 10.4574 110.298 10.3371 112.705 10.0965C100.734 27.2229 99.3736 31.7936 99.3736 32.6263C99.3736 32.9964 99.5078 33.1815 99.6778 33.3573C100.501 34.2085 102.443 34.8377 103.31 34.8377C103.561 34.8377 103.82 34.7451 103.981 34.5879C105.869 32.6356 109.833 19.238 117.206 9.48587C122.914 8.51436 128.077 6.76564 128.077 4.07317C128.077 2.59277 127.263 0.955078 125.008 0.955078C122.717 0.955078 119.613 3.11091 116.311 6.30301C113.287 6.6176 110.164 6.77489 108.679 6.77489C104.635 6.77489 101.065 5.93291 101.065 4.82262C101.065 4.42476 101.503 4.38775 101.503 4.05466C101.503 3.62905 100.832 3.47175 100.331 3.47175C98.5415 3.47175 97.1367 5.02617 97.1367 6.66386C97.1457 9.78195 101.503 10.4574 106.191 10.4574Z" fill="#042C42"/>
<path d="M31.847 3.94426C31.847 2.10302 30.7197 0.826172 28.4649 0.826172C26.1744 0.826172 23.4634 3.32434 20.1618 6.5072C20.1618 6.5072 16.5292 7.18263 12.3418 7.18263C7.95759 7.18263 4.83496 6.10934 4.83496 4.68446C4.83496 4.04604 5.51496 4.27735 5.51496 3.77772C5.51496 3.55566 5.10338 3.34285 4.46812 3.34285C2.30286 3.34285 0.916016 4.88802 0.916016 6.53496C0.916016 9.65305 5.27338 10.3285 9.9618 10.3285C11.7871 10.3285 14.0686 10.2082 16.4755 9.96763C6.09654 25.8912 3.0097 31.1096 3.06338 32.627C3.07233 32.8861 3.22443 33.0804 3.44812 33.2376C4.40549 33.9131 6.32917 34.718 7.19706 34.718C7.44759 34.718 7.71601 34.5885 7.87706 34.4312C9.76496 32.4789 13.6123 19.1183 20.9849 9.36622C26.4786 8.58901 31.847 6.46094 31.847 3.94426Z" fill="#042C42"/>
<path d="M41.5818 16.6649C41.5818 15.055 40.9734 14.25 39.7476 14.25C39.1213 14.25 38.6023 14.4258 38.1818 14.7774C37.7702 15.129 37.5555 15.6194 37.5555 16.23L37.815 17.3126C37.815 18.099 37.2602 19.4314 36.1597 21.3282C35.0502 23.2249 31.5786 28.7209 29.3239 28.7209C27.0871 28.7209 31.8739 19.8293 32.3928 18.867C32.9118 17.9047 33.1713 17.3588 33.1713 17.2386C33.1713 17.1183 33.0818 16.9795 32.8939 16.8314C32.715 16.6834 30.9434 16.8314 30.9434 16.8314C30.5049 16.8314 30.1828 17.0165 29.9592 17.3958C28.3844 19.4777 22.9623 27.9529 20.8776 27.9529C20.3765 27.9529 19.8844 27.6476 21.9065 23.7153C23.9286 19.783 24.9397 17.6364 24.9397 17.2663C24.9397 16.8962 24.6981 16.6094 24.206 16.3966C23.7139 16.1838 23.1323 16.3873 22.4165 16.4799C22.0049 16.5261 19.0702 17.4144 17.7192 17.8307C17.3165 17.951 17.0481 18.3303 17.0481 18.7652C17.057 19.4684 17.0749 20.5047 17.1286 21.0228C17.1465 21.2356 17.3344 21.3929 17.5492 21.3744C18.2292 21.3097 19.7144 20.7175 19.9649 20.5602C19.0434 22.0036 17.1197 25.1772 16.1086 27.5643C15.1065 29.9515 14.6055 31.5799 14.6055 32.4404C14.6055 33.3101 14.7844 33.9208 15.1334 34.2816C15.4823 34.6425 15.9476 34.8275 16.5292 34.8275C17.737 34.8275 19.2402 33.9856 21.0297 32.3109C22.8192 30.6362 24.4923 28.7394 26.0492 26.6298C25.4228 27.9714 23.6513 34.4389 26.6218 34.4389C28.0892 34.4389 30.1113 33.3194 31.2028 32.3294C32.8313 30.849 34.4865 29.2668 35.9986 27.3608C37.5018 25.4548 38.8081 23.484 39.9176 21.4484C41.0271 19.4221 41.5818 17.8307 41.5818 16.6649Z" fill="#042C42"/>
<path d="M92.8566 25.7697C91.5413 26.621 87.2555 30.3035 84.0255 30.3035C83.3365 30.3035 82.5134 30.2109 82.5134 28.9804C82.5134 27.3982 87.9623 24.6502 88.4008 24.3541C88.9287 23.9933 89.0002 23.7249 89.0002 23.5121C89.0002 23.2993 88.8839 23.0033 88.6602 22.6332C88.6155 22.5684 88.5797 22.5036 88.535 22.4389C88.2844 22.078 87.8729 21.8652 87.4434 21.8652H87.4344C87.1392 21.8652 86.6113 21.9947 85.8597 22.2538C85.1081 22.5129 83.6765 23.3363 83.6765 22.3463C83.6765 19.4966 87.7834 18.0902 89.4387 18.0902C89.376 18.34 89.3492 18.6083 89.3492 18.8766C89.3492 19.145 89.4029 19.367 89.5102 19.5243C89.6176 19.6909 89.8413 19.7741 90.1723 19.7741C91.2102 19.7741 92.1408 19.3763 92.955 18.5898C93.7692 17.8034 94.1808 16.8781 94.1808 15.8418C94.1808 15.3792 93.9213 15.0276 93.4023 14.7778C92.8834 14.528 92.3734 14.3984 91.8634 14.3984C86.3071 14.3984 80.2855 19.1542 80.2855 22.3001C80.2855 23.8452 81.1444 24.9185 81.726 25.1868C78.8092 26.3064 77.3418 27.9626 77.3418 30.1462C77.3418 31.8024 78.2007 33.0422 79.9097 33.8472C80.8402 34.2913 82.0839 34.5134 83.6497 34.5134C87.4255 34.5134 91.4608 31.3212 94.2434 28.4437C94.7445 28.0089 93.975 25.0388 92.8566 25.7697Z" fill="#042C42"/>
<path d="M74.6976 27.2965C76.3618 25.3627 77.7218 23.4474 78.7776 21.5599C79.8424 19.6724 80.3703 18.2383 80.3703 17.2575C80.3703 15.6476 79.726 14.8426 78.4287 14.8426C77.7934 14.8426 77.2745 15.0277 76.8718 15.407C76.4692 15.7864 76.2634 16.1287 76.2634 16.434C76.2634 16.7394 76.3439 17.0262 76.505 17.2853C76.666 17.5536 76.7466 17.8774 76.7466 18.2753C76.7466 18.6731 76.3797 19.5151 75.6371 20.8012C74.9034 22.0873 74.0445 23.3549 73.0603 24.6317C72.1029 25.8716 68.9803 29.4615 67.1192 29.6281C66.9761 29.6373 66.8597 29.5171 66.8687 29.369C66.9671 27.0744 69.4992 23.2994 70.4118 21.4396C71.3513 19.5429 72.5413 17.6646 72.2818 17.2205C72.085 16.8782 70.3671 15.8696 69.9018 15.9252C69.0071 16.0454 64.9092 24.0303 63.9339 26.7136C63.7371 27.2502 63.5045 28.0367 63.2987 28.9156C62.7708 29.4615 62.1624 29.9612 61.4645 30.4053C60.7308 30.8772 60.0418 31.1177 59.3976 31.1177C58.7534 31.1177 58.2166 30.9234 57.7782 30.5256C57.3397 30.137 57.125 29.6929 57.125 29.2025C57.125 28.7121 57.1787 28.231 57.2861 27.7498C57.3934 27.2687 57.4561 26.9449 57.465 26.7598C59.7555 24.1414 62.1355 21.1991 64.6229 17.9144C66.1976 15.8419 67.6024 13.8896 68.8461 12.0484C70.0897 10.2071 71.1545 8.40288 72.0403 6.63566C72.926 4.86843 73.3734 3.57308 73.3734 2.74036C73.3734 1.91689 73.1139 1.28772 72.595 0.871357C72.076 0.445742 71.4676 0.242188 70.7876 0.242188C68.5597 0.242188 65.3387 3.33252 61.1155 9.51318C59.2455 12.2519 57.5634 15.5643 56.0692 19.4596C55.2282 21.6617 54.6197 23.6972 54.2529 25.5755C52.2308 26.9819 47.3813 30.3868 44.545 30.3868C43.8561 30.3868 43.0329 30.2943 43.0329 29.0637C43.0329 27.4815 48.4818 24.7335 48.9203 24.4374C49.4482 24.0766 49.5197 23.8083 49.5197 23.5955C49.5197 23.3827 49.4034 23.0866 49.1797 22.7165C49.135 22.6517 49.0992 22.5869 49.0545 22.5222C48.804 22.1613 48.3924 21.9485 47.9629 21.9485H47.954C47.6587 21.9485 47.1308 22.0781 46.3792 22.3371C45.6276 22.5962 44.1961 23.4197 44.1961 22.4297C44.1961 19.5799 48.3029 18.1735 49.9582 18.1735C49.8955 18.4233 49.8687 18.6917 49.8687 18.96C49.8687 19.2283 49.9224 19.4504 50.0297 19.6076C50.1371 19.7742 50.3608 19.8575 50.6918 19.8575C51.7297 19.8575 52.6334 19.4318 53.4745 18.6731C54.7003 17.5814 54.7271 14.4725 52.3829 14.4725C46.8266 14.4725 40.805 19.2283 40.805 22.3741C40.805 23.9193 41.664 24.9926 42.2455 25.2609C39.3287 26.3805 37.8613 28.0367 37.8613 30.2203C37.8613 31.8764 38.7203 33.1163 40.4292 33.9212C41.3597 34.3654 42.6034 34.5874 44.1692 34.5874C47.5424 34.5874 51.1213 32.043 53.8324 29.443C53.8324 29.4986 53.8324 29.5633 53.8324 29.6188C53.8324 31.0992 54.1813 32.2651 54.8792 33.107C55.5771 33.9583 56.5971 34.3839 57.9482 34.3839C59.2903 34.3839 60.7129 34.0138 62.2161 33.2643C62.4666 33.144 62.7082 33.0052 62.9408 32.8572C63.075 33.8102 63.4776 34.4764 64.3276 34.4764C68.3182 34.4856 73.0334 29.2302 74.6976 27.2965ZM68.0318 6.24705C68.7655 7.00576 61.0618 17.4981 59.3708 19.5706C62.6724 10.9566 67.2803 5.46984 68.0318 6.24705Z" fill="#042C42"/>
<path d="M164.188 23.6329C162.506 23.6329 161.28 24.4564 160.01 25.5482C159.195 26.2421 158.345 26.8898 157.469 27.5097C155.572 28.8606 152.923 30.5075 150.758 30.5075C150.069 30.5075 149.246 30.415 149.246 29.1844C149.246 27.6022 154.695 24.8542 155.133 24.5582C155.661 24.1973 155.733 23.929 155.733 23.7162C155.733 23.5034 155.616 23.2073 155.393 22.8372C155.348 22.7724 155.312 22.7077 155.268 22.6429C155.017 22.2821 154.919 21.9027 154.489 21.9027H154.48C154.185 21.9027 153.362 22.5041 152.619 22.7632C151.868 23.0223 150.409 23.5404 150.409 22.5411C150.409 19.6914 154.516 18.285 156.171 18.285C156.109 18.5348 156.082 18.8031 156.082 19.0714C156.082 19.3398 156.135 19.5618 156.243 19.7191C156.35 19.8857 156.574 19.9689 156.905 19.9689C157.943 19.9689 158.829 19.5248 159.688 18.7846C161.253 17.4337 161.137 14.584 158.596 14.584C153.04 14.584 147.018 19.3398 147.018 22.4856C147.018 24.0308 147.877 25.1041 148.459 25.3724C147.412 25.7795 146.553 26.2514 145.882 26.788C145.622 26.8713 144.79 27.63 143.376 29.0826C142.813 29.647 142.186 30.1652 141.489 30.6463C140.791 31.1274 140.209 31.3587 139.753 31.3587C138.885 31.3587 138.455 31.0349 138.455 30.378C138.455 30.0356 138.554 29.6008 138.76 29.0826C138.876 28.7958 138.983 28.5367 139.091 28.3054C139.198 28.0649 139.341 27.7873 139.52 27.4542C139.699 27.1304 139.851 26.8528 139.976 26.6307C140.102 26.4087 140.263 26.1311 140.46 25.7887C140.665 25.4557 140.809 25.2151 140.889 25.0856C140.979 24.956 141.113 24.7432 141.292 24.4471C141.471 24.1603 141.587 23.9753 141.623 23.9105C141.668 23.8457 141.936 23.4294 142.446 22.6707C142.947 21.912 143.359 21.2828 143.663 20.7832C143.976 20.2835 144.28 19.7191 144.584 19.0899C144.889 18.4608 145.041 17.9149 145.041 17.4615C145.041 17.0081 144.844 16.5918 144.45 16.2217C144.056 15.8516 143.52 15.6665 142.849 15.6665C142.178 15.6665 141.426 15.8516 140.594 16.2217C138.876 16.9804 136.782 18.7939 134.286 21.6529L135.19 20.2465C136.442 18.3127 137.069 16.9896 137.069 16.2957C137.069 15.6295 136.657 14.7135 135.467 14.7135C133.06 14.7135 131.11 15.537 126.931 16.6936C126.931 16.6936 125.983 14.9726 122.207 14.9726C120.605 14.9726 118.995 15.685 118.333 16.675C117.465 17.1562 116.543 17.7946 115.577 18.5996C114.441 19.5711 113.376 20.6629 112.401 21.8749C111.416 23.0963 110.62 24.4934 110.003 26.0848C109.385 27.6763 109.072 29.1196 109.072 30.4242C109.072 31.7288 109.412 32.7559 110.092 33.4868C110.772 34.2178 111.676 34.5879 112.803 34.5879C113.931 34.5879 115.183 34.1993 116.561 33.422C117.939 32.6448 119.228 31.6456 120.418 30.4242C121.608 29.2029 122.699 27.9076 123.701 26.5197C124.694 25.1318 125.482 23.7717 126.045 22.4393C126.546 21.2643 126.824 20.2835 126.886 19.4878C128.094 19.1917 129.436 18.8679 130.949 18.544C132.04 18.3127 131.557 19.6173 130.975 20.7369C130.6 21.3846 130.134 22.208 129.562 23.198C128.238 25.4927 127.253 27.2136 126.618 28.3702C125.974 29.5267 124.399 31.9602 124.31 32.1267C124.22 32.3025 124.122 32.5153 124.014 32.7744C123.916 33.0334 123.862 33.2555 123.862 33.4313C123.862 33.6071 123.916 33.7459 124.032 33.8292C124.149 33.9217 124.462 34.0605 124.972 34.264C125.482 34.4676 125.893 34.5694 126.189 34.5694C126.493 34.5694 126.878 34.2455 127.352 33.6071C129.052 31.2662 131.074 28.7033 132.3 27.2969C133.525 25.8998 137.99 20.5333 138.751 20.5333C139.681 20.5333 136.442 26.6122 135.95 27.8335C135.458 29.0549 135.216 30.1467 135.216 31.1089C135.216 32.0712 135.592 32.8854 136.344 33.5516C137.095 34.2178 137.847 34.5601 138.608 34.5786C139.368 34.5971 140.066 34.4861 140.701 34.264C141.605 33.9309 142.822 33.0982 144.343 31.7751C144.71 32.7281 145.479 33.4776 146.651 34.0235C147.582 34.4676 148.825 34.6896 150.391 34.6896C154.167 34.6896 158.202 31.4975 160.985 28.62C161.03 28.583 162.604 26.566 164.197 26.566C166.407 26.566 168.071 28.8328 168.071 31.8399C168.071 38.7792 162.327 42.9151 156.78 42.9151C153.899 42.9151 151.501 42.4617 148.727 41.9343C144.969 41.2219 140.299 40.3429 132.765 40.3244C132.765 40.2781 132.765 40.2411 132.765 40.2134C132.765 39.8988 132.577 39.7693 132.13 39.7693C131.298 39.7693 121.912 39.1956 114.566 39.1956C114.199 39.1956 113.788 39.2049 113.788 39.7693C113.788 40.4262 113.796 43.4332 113.796 43.9421C113.796 44.3862 114.047 44.5435 114.369 44.5435C120.31 44.5435 127.28 43.8218 132.326 43.8218C132.666 43.8218 132.747 43.6923 132.756 43.2852C140.03 43.3037 144.379 44.1179 148.208 44.8396C151.116 45.3855 153.63 45.8666 156.771 45.8666C165.629 45.8666 170.916 38.733 170.916 31.8306C170.916 27.1766 168.026 23.6329 164.188 23.6329ZM122.082 22.5874C121.5 23.6977 120.632 25.0115 119.469 26.5197C118.306 28.0278 115.649 30.4983 114.011 30.4983C113.412 30.4983 113.108 30.0726 113.108 29.2307C113.108 27.5097 113.707 25.3909 115.219 23.6884C116.928 21.6991 118.199 20.5426 119.183 19.8209C119.8 20.2558 120.588 20.4963 121.393 20.4963C121.858 20.4963 122.368 20.4408 122.932 20.3575C122.923 20.7739 122.636 21.5141 122.082 22.5874Z" fill="#042C42"/>
<path d="M112.827 39.4824C112.478 39.4824 111.512 39.4824 111.109 39.4824C110.805 39.4824 110.68 39.5842 110.68 39.908C110.68 39.908 110.68 42.7208 110.68 43.7756C110.68 44.2382 110.715 44.4603 111.118 44.4603C111.467 44.4603 112.496 44.4603 112.899 44.4603C113.069 44.4603 113.194 44.2937 113.194 43.8496C113.194 43.498 113.194 40.2781 113.194 39.8988C113.185 39.612 113.042 39.4824 112.827 39.4824Z" fill="#042C42"/>
<path d="M109.51 39.416C109.162 39.416 108.133 39.416 107.73 39.416C107.56 39.416 107.435 39.5826 107.435 40.0267C107.435 40.11 107.435 40.369 107.435 40.7021C105.126 40.7021 101.753 40.7021 101.753 40.7021C101.753 40.7021 101.046 39.5548 99.8921 39.5548C99.1316 39.5548 97.6016 40.2302 97.6016 41.5811C97.6016 42.9412 98.38 43.7832 99.8652 43.7832C100.67 43.7832 101.628 43.0708 101.628 43.0708L107.426 43.006C107.426 43.4779 107.426 43.8572 107.426 43.9682C107.426 44.2551 107.56 44.3846 107.784 44.3846C108.133 44.3846 109.099 44.3846 109.502 44.3846C109.806 44.3846 109.931 44.2828 109.931 43.959C109.931 43.959 109.931 41.1462 109.931 40.0914C109.949 39.6381 109.913 39.416 109.51 39.416Z" fill="#042C42"/>
</svg>
