<svg width="57" height="56" viewBox="0 0 57 56" fill="none" xmlns="http://www.w3.org/2000/svg">
<g id="No Contract">
<g id="Group">
<g id="Group_2">
<path id="Vector" d="M46.3992 2.80078H9.06589C8.57081 2.80078 8.09602 2.99745 7.74595 3.34752C7.39588 3.69758 7.19922 4.17238 7.19922 4.66745V48.5341C7.19922 49.0292 7.39588 49.504 7.74595 49.8541C8.09602 50.2041 8.57081 50.4008 9.06589 50.4008H26.1207C24.1354 47.6939 23.0652 44.4243 23.0659 41.0675C23.0659 32.3044 30.1695 25.2008 38.9326 25.2008C42.426 25.2008 45.6451 26.3432 48.2659 28.2565V4.66745C48.2659 4.17238 48.0692 3.69758 47.7192 3.34752C47.3691 2.99745 46.8943 2.80078 46.3992 2.80078ZM30.5326 19.6008H13.7326V15.8674H30.5326V19.6008ZM41.7326 12.1341H13.7326V8.40078H41.7326V12.1341Z" fill="url(#paint0_linear_6277_84670)"/>
<path id="Vector_2" d="M38.9322 28.9336C32.2308 28.9336 26.7988 34.3656 26.7988 41.0669C26.7988 47.7683 32.2308 53.2003 38.9322 53.2003C45.6335 53.2003 51.0655 47.7683 51.0655 41.0669C51.0655 34.3656 45.6335 28.9336 38.9322 28.9336ZM45.8519 45.3472L43.2124 47.9867L38.9322 43.7064L34.6519 47.9867L32.0124 45.3472L36.2927 41.0669L32.0124 36.7867L34.6519 34.1472L38.9322 38.4275L43.2124 34.1472L45.8519 36.7867L41.5716 41.0669L45.8519 45.3472Z" fill="url(#paint1_linear_6277_84670)"/>
</g>
</g>
</g>
<defs>
<linearGradient id="paint0_linear_6277_84670" x1="-42.6619" y1="24.7121" x2="26.6147" y2="24.7121" gradientUnits="userSpaceOnUse">
<stop stop-color="#07689F"/>
<stop offset="1" stop-color="#338DBF"/>
</linearGradient>
<linearGradient id="paint1_linear_6277_84670" x1="-2.66456" y1="40.1041" x2="38.2716" y2="40.1041" gradientUnits="userSpaceOnUse">
<stop stop-color="#07689F"/>
<stop offset="1" stop-color="#338DBF"/>
</linearGradient>
</defs>
</svg>
