<svg width="48" height="48" viewBox="0 0 48 48" fill="none" xmlns="http://www.w3.org/2000/svg">
<g id="carbon:phone-filled">
<path id="Vector" d="M30.0219 31.6619L33.2536 28.4301C33.6889 28.0003 34.2396 27.706 34.8389 27.5831C35.4382 27.4601 36.0602 27.5138 36.6296 27.7376L40.5683 29.3102C41.1437 29.5437 41.637 29.9424 41.9862 30.4559C42.3354 30.9694 42.5247 31.5747 42.5304 32.1957V39.4094C42.5271 39.8318 42.4383 40.2491 42.2694 40.6363C42.1005 41.0235 41.855 41.3725 41.5476 41.6623C41.2403 41.9521 40.8775 42.1767 40.4811 42.3226C40.0847 42.4685 39.6628 42.5327 39.241 42.5112C11.6414 40.7944 6.07241 17.422 5.01921 8.47706C4.97032 8.0378 5.01499 7.59316 5.15028 7.1724C5.28557 6.75165 5.50842 6.3643 5.80416 6.03585C6.0999 5.7074 6.46183 5.44529 6.86615 5.26677C7.27046 5.08824 7.70799 4.99735 8.14996 5.00006H15.1184C15.7402 5.0019 16.3473 5.18973 16.8615 5.5394C17.3757 5.88906 17.7736 6.38457 18.0039 6.96218L19.5764 10.9009C19.8076 11.468 19.8666 12.0906 19.746 12.691C19.6254 13.2914 19.3306 13.843 18.8984 14.2769L15.6666 17.5086C15.6666 17.5086 17.5278 30.1037 30.0219 31.6619Z" fill="white"/>
</g>
</svg>
