<svg width="57" height="56" viewBox="0 0 57 56" fill="none" xmlns="http://www.w3.org/2000/svg">
<g id="togather" clip-path="url(#clip0_6277_84657)">
<g id="Group">
<path id="Vector" d="M32.8308 21.9248C31.8704 20.3478 30.1968 19.4062 28.3534 19.4062C26.8768 19.4062 25.511 20.0036 24.5078 21.0883C23.6119 22.0551 23.1149 23.3251 23.1165 24.6431C23.1165 27.5309 25.4659 29.8801 28.3535 29.8801C31.2412 29.8801 33.5905 27.5308 33.5905 24.6431C33.5905 24.1055 33.5097 23.5759 33.3503 23.0692C33.2239 22.6682 33.0494 22.284 32.8308 21.9248ZM29.6839 33.2764H27.0229C24.129 33.2764 21.47 34.7316 19.9102 37.169C19.0396 38.5276 18.5773 40.1076 18.5781 41.7212V47.5544H38.1288V41.7212C38.1297 40.1076 37.6674 38.5276 36.7968 37.169C35.2368 34.7316 32.5778 33.2764 29.6839 33.2764Z" fill="url(#paint0_linear_6277_84657)"/>
<path id="Vector_2" d="M18.2262 23.743C22.2849 22.0635 24.2137 17.4116 22.5341 13.3528C20.8546 9.29407 16.2028 7.36531 12.144 9.04486C8.08521 10.7244 6.15646 15.3762 7.836 19.435C9.51554 23.4938 14.1674 25.4225 18.2262 23.743Z" fill="url(#paint1_linear_6277_84657)"/>
<path id="Vector_3" d="M15.2849 41.722C15.2849 39.4747 15.9252 37.2865 17.1365 35.3941C18.458 33.3292 20.3474 31.7729 22.5317 30.8709C21.149 29.5771 20.1972 27.8298 19.9135 25.8688C18.6647 26.9505 17.1715 27.6424 15.1778 27.6424C12.6452 27.6424 10.3057 26.8007 8.42357 25.3828C6.00064 26.4123 3.90547 28.1556 2.43289 30.4565C1.06113 32.5974 0.332651 35.087 0.333986 37.6296V44.1131H15.2849V41.722Z" fill="url(#paint2_linear_6277_84657)"/>
<path id="Vector_4" d="M47.1081 22.0185C50.2141 18.9124 50.2141 13.8766 47.1081 10.7706C44.0021 7.6646 38.9663 7.6646 35.8603 10.7706C32.7542 13.8766 32.7542 18.9124 35.8603 22.0185C38.9663 25.1245 44.0021 25.1245 47.1081 22.0185Z" fill="url(#paint3_linear_6277_84657)"/>
<path id="Vector_5" d="M54.2339 30.4566C52.7613 28.1557 50.6662 26.4124 48.2432 25.3828C46.361 26.8008 44.0216 27.6425 41.4891 27.6425C39.5053 27.6425 38.0335 26.8969 36.8082 25.762C36.5441 27.7663 35.5836 29.5538 34.1758 30.871C36.3601 31.7729 38.2496 33.3293 39.571 35.3942C40.7811 37.2828 41.4238 39.479 41.4226 41.7221V44.1131H56.3328V37.6296C56.3328 35.0825 55.607 32.6021 54.2339 30.4566Z" fill="url(#paint4_linear_6277_84657)"/>
</g>
</g>
<defs>
<linearGradient id="paint0_linear_6277_84657" x1="9.0145" y1="35.5685" x2="28.7398" y2="35.5685" gradientUnits="userSpaceOnUse">
<stop stop-color="#07689F"/>
<stop offset="1" stop-color="#338DBF"/>
</linearGradient>
<linearGradient id="paint1_linear_6277_84657" x1="1.09731" y1="23.5006" x2="15.9267" y2="17.3642" gradientUnits="userSpaceOnUse">
<stop stop-color="#07689F"/>
<stop offset="1" stop-color="#338DBF"/>
</linearGradient>
<linearGradient id="paint2_linear_6277_84657" x1="-10.5245" y1="36.1375" x2="11.8714" y2="36.1375" gradientUnits="userSpaceOnUse">
<stop stop-color="#07689F"/>
<stop offset="1" stop-color="#338DBF"/>
</linearGradient>
<linearGradient id="paint3_linear_6277_84657" x1="31.1926" y1="28.355" x2="42.5408" y2="17.0067" gradientUnits="userSpaceOnUse">
<stop stop-color="#07689F"/>
<stop offset="1" stop-color="#338DBF"/>
</linearGradient>
<linearGradient id="paint4_linear_6277_84657" x1="23.3372" y1="36.1375" x2="45.6921" y2="36.1375" gradientUnits="userSpaceOnUse">
<stop stop-color="#07689F"/>
<stop offset="1" stop-color="#338DBF"/>
</linearGradient>
<clipPath id="clip0_6277_84657">
<rect width="56" height="56" fill="white" transform="translate(0.333984)"/>
</clipPath>
</defs>
</svg>
