<svg width="168" height="45" viewBox="0 0 168 45" fill="none" xmlns="http://www.w3.org/2000/svg">
<g id="Group">
<g id="Group_2">
<g id="logo">
<g id="Group_3">
<path id="Vector" d="M21.2491 40.3509V40.0506L21.2579 39.8322V39.1952L21.2315 38.9858L21.1875 38.7947L21.0115 38.7128L20.8179 38.6855H20.3867L20.1403 38.6946L20.0083 38.7674L19.8939 38.9221L19.8059 39.1132L19.7003 39.3681L19.5683 39.6229L19.4715 39.814L19.4275 39.9414L19.3219 40.1325L19.2339 40.3236L19.1723 40.4419L19.1195 40.5784L19.0403 40.7604L18.9347 40.9515L18.7587 41.3246L18.7059 41.4611L18.6267 41.6249L18.5475 41.816L18.4331 41.8888L18.3539 41.816L18.2923 41.6886L18.2219 41.5612L18.1427 41.3701L18.0459 41.179L17.9403 40.9879L17.7907 40.6967L17.6939 40.5238L17.5707 40.2872L17.5179 40.1689L17.4563 40.0415L17.3419 39.8413L17.2011 39.5683L17.1043 39.3499L17.0427 39.2134L16.9371 39.0222L16.8051 38.8584L16.7083 38.7765L16.5147 38.731L16.3211 38.7128H16.1627L16.0219 38.7219L15.8899 38.7583L15.7843 38.8311L15.7403 38.9585L15.7227 39.1406L15.7403 39.3772L15.7491 39.7139L15.7403 39.9232L15.7491 40.1325L15.7315 40.4146L15.7491 40.5602L15.7579 40.7149L15.7403 40.8605L15.7579 41.0152V41.3155L15.7667 41.6613L15.7579 41.8888L15.7491 42.0617L15.7403 42.1982L15.7579 42.3347L15.7491 42.4712L15.7403 42.6077L15.7579 42.7442V42.8807L15.7403 43.09L15.7579 43.2993V43.4358L15.8283 43.5723L15.8987 43.6451H16.0131L16.2243 43.6542L16.3915 43.636L16.4355 43.5632L16.4619 43.3994L16.4795 43.1901L16.4003 42.908L16.4091 42.6077V42.1163L16.4003 41.9798L16.4091 41.8433L16.4179 41.6977L16.4003 41.543L16.4091 41.4065L16.4179 41.1972L16.4003 40.9697V40.7786L16.4267 40.6967L16.5059 40.7786L16.6379 41.0425L16.7435 41.2427L16.8403 41.4338L16.9459 41.5976L17.0339 41.8069L17.1219 41.9707L17.2539 42.2164L17.3507 42.3984L17.4211 42.5804L17.5443 42.8261L17.6499 43.0172L17.7819 43.2811L17.9051 43.4631L18.0195 43.5359L18.1779 43.5541L18.3011 43.4995L18.3979 43.363L18.4859 43.1992L18.5563 43.0445L18.6531 42.8807L18.7147 42.7169L18.7939 42.5349L18.9259 42.2801L19.0139 42.089L19.1019 41.8979L19.2075 41.6977L19.3043 41.5066L19.3835 41.3155L19.4451 41.179L19.5155 41.0425L19.6387 40.7877L19.7443 40.542L19.8411 40.3691L19.9291 40.2599L19.9467 40.3964L19.9379 40.5966V41.0061L19.9555 41.1517L19.9467 41.2882L19.9555 41.4338V41.816L19.9467 41.9798L19.9291 42.2528L19.9467 42.3893V42.5258L19.9379 42.7351L19.9467 43.0081L19.9291 43.2174L19.9731 43.3812L20.1139 43.5177L20.3163 43.5632L20.4747 43.5723H20.6067L20.9587 43.5632L21.1083 43.4995L21.2051 43.3084L21.2227 43.0991L21.2139 42.8625V42.635L21.2227 42.4985L21.2315 42.2801L21.2227 42.0617L21.2139 41.9161V41.7796L21.2315 41.634L21.2227 41.4884V41.2063L21.2403 41.0516L21.2315 40.9151L21.2491 40.4965V40.3509ZM18.1515 42.4985L18.1339 42.4712L18.1515 42.4985ZM21.1963 42.9899L21.1787 42.9626L21.2051 42.9717L21.1963 42.9899Z" fill="white"/>
<path id="Vector_2" d="M27.9699 39.0483L27.9523 38.9118L27.8907 38.7935L27.7851 38.7207L27.6443 38.7025L27.4331 38.6934H27.2483L27.0547 38.7025L26.8083 38.7207L26.6939 38.8572L26.6763 39.0483L26.6939 39.1939L26.7027 39.3486L26.7203 39.5761L26.7115 39.7945L26.7203 40.0311L26.7027 40.2495L26.7115 40.4042L26.7027 40.5407V40.6863L26.7115 40.8319L26.7291 40.9775V41.2687L26.7203 41.4234V41.5417L26.7027 41.6873L26.6851 41.8511L26.6587 41.9876L26.6323 42.1332L26.5795 42.2697L26.5355 42.4062L26.4563 42.5245L26.3683 42.6337L26.2715 42.7338L26.1395 42.8066L26.0075 42.8521L25.8139 42.8703L25.5939 42.8612L25.4707 42.843L25.3387 42.8066L25.2155 42.7611L25.1011 42.6883L25.0131 42.6064L24.9251 42.5063L24.8371 42.3971L24.7579 42.1969L24.7051 41.9876L24.6787 41.842L24.6611 41.7055L24.6259 41.5599L24.6083 41.4143L24.6171 41.2687L24.5995 41.1322L24.6083 40.9866V40.841L24.5907 40.7045L24.5819 40.5498V40.4133L24.5995 40.2677L24.5907 40.1312L24.5995 39.9947V39.84L24.6083 39.7035V39.5579L24.5995 39.4214V39.0847L24.5907 38.8845L24.4939 38.7207L24.2739 38.6934H24.0539L23.9307 38.748L23.8867 38.8663L23.9043 39.0119L23.9131 39.1484L23.9219 39.294V39.4396L23.9131 39.5852L23.8955 39.7217L23.9131 39.8582L23.8955 40.0129V40.1494L23.9043 40.295L23.8867 40.4315L23.9043 40.5771L23.8867 40.8046V41.6509L23.9131 41.7874L23.9307 41.933L23.9747 42.0786L24.0011 42.2151L24.0451 42.3607L24.0979 42.4881L24.1683 42.6246L24.2299 42.752L24.3003 42.8612L24.3883 42.9704L24.4851 43.0796L24.5907 43.1706L24.6875 43.2434L24.8019 43.3162L25.0483 43.4254L25.1715 43.4709L25.2947 43.5073L25.4179 43.5255L25.5499 43.5437L25.6819 43.5528L25.8667 43.5619L26.0603 43.5528L26.1923 43.5346L26.4563 43.4891L26.5971 43.4527L26.7115 43.4072L26.8435 43.3526L27.0899 43.2252L27.1955 43.1524L27.3011 43.0705L27.4947 42.8794L27.5827 42.7702L27.6531 42.6519L27.7147 42.5427L27.7851 42.4153L27.8291 42.2879L27.8907 42.1605L27.9171 42.024L27.9611 41.8875L27.9699 41.751L27.9875 41.5326V40.4406L27.9963 39.8582V39.6489L27.9875 39.4305L27.9963 39.2212L27.9699 39.0483ZM24.3443 41.5144L24.3003 41.4507L24.2827 41.3233L24.3355 41.3051L24.3619 41.4143L24.3443 41.5144Z" fill="white"/>
<path id="Vector_3" d="M34.4046 41.7151L34.3342 41.5968L34.2374 41.4876L34.1406 41.3966L34.035 41.3147L33.9206 41.2419L33.8062 41.1782L33.683 41.1145L33.5774 41.0599L33.1902 40.9052L33.067 40.8506L32.7414 40.7414L32.5566 40.6686L32.319 40.5594L32.1782 40.4957L32.0726 40.432L31.9494 40.3683L31.8526 40.2864L31.7558 40.1863L31.6766 40.068L31.6238 39.9497L31.615 39.7495L31.6766 39.5584L31.7558 39.4492L31.8702 39.3673L32.0638 39.3218L32.2486 39.3127L32.3806 39.3218L32.5126 39.3491L32.6446 39.3764L32.7502 39.4128L32.8734 39.4674L32.9966 39.5311L33.1022 39.5948L33.2518 39.7313L33.3838 39.8769L33.5158 40.0134L33.7094 40.0953L33.8942 40.0407L33.9822 39.9406L34.0702 39.8314L34.167 39.7131L34.2198 39.5766L34.2462 39.4401L34.167 39.2672L34.0086 39.1398L33.9118 39.0579L33.7974 38.9851L33.4278 38.8031L33.287 38.7485L33.1638 38.7121L33.023 38.6757L32.8998 38.6484L32.759 38.6302L32.5654 38.6211L32.3542 38.6302H32.2222L32.0814 38.6575L31.9582 38.6757L31.8174 38.703L31.6854 38.7394L31.5622 38.7849L31.4478 38.8395L31.3246 38.8941L31.087 39.0397L30.9814 39.1216L30.9022 39.2126L30.8142 39.3218L30.7262 39.431L30.647 39.5493L30.5502 39.8041L30.5238 39.9406L30.4974 40.159L30.5238 40.4593L30.5678 40.6595L30.6294 40.7687L30.7262 40.8779L30.823 40.9598L31.131 41.2146L31.2454 41.2783L31.4126 41.3875L31.7118 41.5331L31.8966 41.6059L32.0902 41.6696L32.4686 41.797L32.583 41.8425L32.8206 41.9517L32.9878 42.0518L33.155 42.1701L33.2518 42.2793L33.287 42.4704L33.2254 42.6342L33.111 42.6979L32.9878 42.7434L32.8734 42.7707L32.7238 42.7889H32.5918L32.4422 42.7707L32.3014 42.7434L32.1782 42.707L32.055 42.6524L31.6766 42.4977L31.571 42.434L31.439 42.3703L31.3158 42.2975L31.2102 42.2247L31.087 42.1428L30.9902 42.0609L30.8494 41.9335L30.6998 41.8516L30.5678 41.8971L30.4622 41.9699L30.3742 42.0791L30.3126 42.1974L30.251 42.3248L30.2158 42.4613L30.207 42.6251L30.2686 42.7798L30.4006 42.8981L30.5502 43.0255L30.8054 43.1711L31.0518 43.3076L31.2542 43.3895L31.3862 43.435L31.527 43.4714L31.659 43.5078L31.791 43.526L31.923 43.5533L32.0638 43.5715L32.2134 43.5806H32.627L32.8998 43.5533L33.0494 43.5351L33.1902 43.5078L33.4366 43.4441L33.5686 43.4077L33.6918 43.3531L33.8414 43.253L33.9822 43.1438L34.079 43.0437L34.1582 42.9527L34.2286 42.8344L34.3254 42.6615L34.4134 42.4795L34.4398 42.3521L34.4574 42.1974L34.475 41.9972L34.4486 41.8425L34.4046 41.7151Z" fill="white"/>
<path id="Vector_4" d="M38.2243 39.3395L38.2067 39.203L38.1803 38.9937L38.1363 38.8026L37.9691 38.7207L37.7755 38.6934H37.6435L37.2123 38.7025L37.0099 38.7753L36.9131 38.93V39.1484L36.9219 39.3759L36.9131 39.6125L36.9043 39.8218V40.3678L36.8955 40.5134L36.8867 40.6681L36.8955 40.8137L36.9131 40.9684V41.2687L36.9043 41.4234L36.8955 41.6145L36.9131 41.842L36.9043 41.9967L36.9131 42.1332L36.9219 42.2697V42.4062L36.9131 42.5427L36.9043 42.6792L36.9131 42.8157V43.0341L36.9043 43.2616L36.9483 43.3981L37.0715 43.5255L37.2827 43.5801L37.4675 43.5892H37.5907L37.9515 43.5801L38.0835 43.5164L38.1891 43.3253L38.2243 43.116L38.2067 42.8885L38.2155 42.661L38.2067 42.5245L38.2155 42.3152V41.8147L38.2243 41.6691L38.2155 41.5326L38.2243 41.387V41.2505L38.2155 41.1049V40.9684L38.2243 40.75L38.2155 40.5225L38.2331 40.3769V40.0766L38.2243 39.8582V39.5761V39.3395ZM38.1363 42.9522L38.1539 42.9795L38.1363 42.9522Z" fill="white"/>
<path id="Vector_5" d="M42.0779 40.6323L42.1043 40.4958L42.1483 40.3502L42.1923 40.2228L42.2539 40.0863L42.3067 39.9497L42.3771 39.8314L42.4651 39.7222L42.5531 39.613L42.6587 39.5129L42.7555 39.431L42.8875 39.3491L42.9931 39.2945L43.1339 39.2581L43.2659 39.2308L43.4771 39.2126L43.6619 39.2217L43.8027 39.249L43.9259 39.2854L44.0667 39.3309L44.3131 39.4583L44.4099 39.5311L44.5243 39.6221L44.6123 39.7222L44.6915 39.8314L44.8147 39.9042L44.9555 39.8678L45.1051 39.7222L45.1667 39.5311L45.1051 39.3673L44.9907 39.249L44.7971 39.0943L44.6915 39.0215L44.5243 38.9305L44.2075 38.7849L44.0579 38.7394L43.9259 38.703L43.7851 38.6848L43.6003 38.6575L43.3627 38.6484L43.0371 38.6575L42.9227 38.6757L42.7819 38.6939L42.6411 38.7121L42.5003 38.7394L42.2627 38.8122L42.1307 38.8486L41.9987 38.9032L41.8755 38.9578L41.7611 39.0215L41.6555 39.0943L41.5499 39.1671L41.4443 39.2581L41.2419 39.4401L41.1715 39.5493L41.0923 39.6585L41.0131 39.7677L40.9427 39.8951L40.8371 40.1409L40.8107 40.2683L40.7667 40.4048L40.7227 40.5413L40.7051 40.6687L40.6787 40.8143L40.6699 40.9417L40.6611 41.0873L40.6523 41.2966L40.6611 41.5059V41.6424L40.6963 41.7789L40.7315 41.9154L40.7843 42.0519L40.8371 42.1793L40.8987 42.3067L40.9515 42.4341L41.0307 42.5524L41.1011 42.6616L41.2859 42.8618L41.3915 42.9619L41.5059 43.0529L41.6731 43.1621L41.8315 43.2804L41.9723 43.3441L42.2275 43.4351L42.3595 43.4806L42.4827 43.5079L42.6059 43.5352L42.7467 43.5534L42.8875 43.5716L43.0899 43.5807L43.3099 43.5716L43.4507 43.5534L43.6003 43.5352L43.7411 43.4988L43.8819 43.4624L44.1459 43.3714L44.2867 43.3077L44.6387 43.0711L44.8059 42.9346L44.9555 42.7799L45.0259 42.6798L45.1051 42.5615V42.425L45.0699 42.2885L44.8587 42.1156L44.7091 42.1065L44.5859 42.1884L44.5155 42.2976L44.4187 42.4068L44.3219 42.4978L44.2339 42.5797L44.1195 42.6525L43.9963 42.7162L43.8731 42.7526L43.7411 42.789L43.5475 42.7981L43.3451 42.7799L43.2043 42.7617L43.0723 42.7253L42.9491 42.6798L42.8171 42.6252L42.7027 42.5524L42.5795 42.4705L42.4739 42.3704L42.3947 42.2612L42.3067 42.152L42.2363 42.0246L42.1395 41.7607L42.0867 41.6242L42.0603 41.4877V41.3421L42.0427 41.1237L42.0603 40.9144L42.0779 40.6323Z" fill="white"/>
<path id="Vector_6" d="M54.1693 41.7054L54.1077 41.5871L54.0109 41.487L53.9053 41.396L53.7997 41.3141L53.6853 41.2322L53.5709 41.1685L53.4477 41.1048L53.3509 41.0502L52.9637 40.8955L52.8317 40.85L52.5149 40.7408L52.3213 40.6589L52.0837 40.5588L51.9517 40.4951L51.8461 40.4314L51.7141 40.3586L51.6173 40.2767L51.5205 40.1765L51.4413 40.0673L51.3973 39.949L51.3797 39.7488L51.4413 39.5486L51.5205 39.4485L51.6437 39.3666L51.8285 39.312L52.0133 39.3029L52.1541 39.3211L52.2773 39.3393L52.4181 39.3666L52.5149 39.4121L52.6469 39.4576L52.7701 39.5213L52.8669 39.5941L53.0165 39.7306L53.1485 39.8762L53.2805 40.0036L53.4741 40.0855L53.6589 40.0309L53.7557 39.9399L53.8437 39.8307L53.9317 39.7033L53.9933 39.5759L54.0197 39.4303L53.9317 39.2665L53.7821 39.13L53.6765 39.0572L53.5621 38.9753L53.1925 38.7933L53.0605 38.7478L52.9373 38.7023L52.7965 38.675L52.6645 38.6477L52.5325 38.6295L52.3389 38.6113L52.1277 38.6204L51.9869 38.6295L51.8461 38.6477L51.7317 38.675L51.5821 38.7023L51.4589 38.7387L51.3269 38.7751L51.2125 38.8297L51.0893 38.8843L50.8605 39.039L50.7461 39.1209L50.6669 39.2119L50.5789 39.312L50.4909 39.4212L50.4205 39.5486L50.3149 39.7943L50.2885 39.9399L50.2709 40.1492L50.2885 40.4496L50.3325 40.6589L50.3941 40.7681L50.4909 40.8682L50.5965 40.9592L50.9045 41.2049L51.0101 41.2777L51.1773 41.3778L51.4853 41.5234L51.6701 41.5962L51.8549 41.669L52.2333 41.7964L52.3565 41.8419L52.5853 41.9511L52.7613 42.0421L52.9197 42.1695L53.0165 42.2787L53.0605 42.4607L52.9901 42.6336L52.8845 42.6973L52.7613 42.7428L52.6469 42.7701L52.4885 42.7883H52.3653L52.2069 42.7701L52.0749 42.7337L51.9517 42.6973L51.8197 42.6518L51.4413 42.488L51.3357 42.4243L51.2037 42.3697L51.0893 42.2969L50.9749 42.215L50.8605 42.1422L50.7549 42.0603L50.6229 41.9329L50.4645 41.851L50.3325 41.8874L50.2269 41.9693L50.1389 42.0694L50.0773 42.1877L50.0157 42.3242L49.9893 42.4607L49.9805 42.6154L50.0421 42.7792L50.1653 42.8884L50.3237 43.0249L50.5701 43.1705L50.8253 43.2979L51.0277 43.3889L51.1509 43.4253L51.2917 43.4708L51.4325 43.5072L51.5557 43.5254L51.6965 43.5527L51.8285 43.5709L51.9869 43.58H52.3917L52.6645 43.5527L52.8141 43.5345L52.9549 43.5072L53.2101 43.4435L53.3421 43.398L53.4653 43.3525L53.6149 43.2524L53.7469 43.1432L53.8437 43.0431L53.9317 42.943L53.9933 42.8338L54.0989 42.6609L54.1869 42.4789L54.2133 42.3424L54.2221 42.1877L54.2397 41.9966L54.2221 41.8328L54.1693 41.7054Z" fill="white"/>
<path id="Vector_7" d="M57.8631 40.6231L57.8895 40.4866L57.9335 40.3501L57.9775 40.2136L58.0391 40.0862L58.0919 39.9497L58.1535 39.8314L58.2503 39.7222L58.3295 39.6039L58.4439 39.5129L58.5319 39.4219L58.6727 39.3491L58.7783 39.2945L58.9103 39.249L59.0511 39.2217L59.2535 39.2126H59.4471L59.5791 39.249L59.7111 39.2763L59.8519 39.3309L60.0983 39.4583L60.1951 39.5311L60.3007 39.6221L60.3887 39.7222L60.4767 39.8314L60.5911 39.9042L60.7407 39.8678L60.8815 39.7222L60.9519 39.5311L60.8903 39.3673L60.7671 39.249L60.5823 39.0943L60.4767 39.0215L60.3007 38.9214L59.9839 38.7849L59.8431 38.7394L59.7111 38.703L59.5703 38.6757L59.3855 38.6575L59.1391 38.6484L58.8223 38.6575L58.7079 38.6757L58.5583 38.6848L58.4263 38.703L58.2855 38.7394L58.0391 38.8031L57.9159 38.8486L57.7751 38.9032L57.6607 38.9578L57.5463 39.0215L57.4319 39.0943L57.3351 39.1671L57.2295 39.249L57.0183 39.4401L56.9567 39.5493L56.8775 39.6585L56.7983 39.7677L56.7279 39.886L56.6135 40.1408L56.5871 40.2682L56.5519 40.3956L56.4991 40.5412L56.4903 40.6686L56.4639 40.8052L56.4551 40.9417L56.4375 41.0782V41.2875L56.4463 41.4968V41.6424L56.4815 41.7789L56.5167 41.9154L56.5607 42.0519L56.6135 42.1793L56.6839 42.3067L56.7367 42.425L56.8159 42.5524L56.8863 42.6616L57.0711 42.8618L57.1767 42.9619L57.2823 43.0529L57.4583 43.1621L57.6167 43.2713L57.7487 43.335L58.0127 43.4351L58.1447 43.4806L58.2679 43.5079L58.3911 43.5352L58.5319 43.5534L58.6727 43.5716H58.8751H59.0863L59.2271 43.5534L59.3767 43.5352L59.5263 43.4988L59.6671 43.4624L59.9223 43.3623L60.0719 43.2986L60.4239 43.0711L60.5911 42.9346L60.7407 42.7799L60.8111 42.6707L60.8903 42.5615V42.425L60.8551 42.2794L60.6439 42.1156L60.4943 42.0974L60.3623 42.1884L60.3007 42.2976L60.2039 42.3977L60.1071 42.4887L60.0103 42.5797L59.9047 42.6525L59.7815 42.7071L59.6583 42.7526L59.5175 42.789H59.3327L59.1303 42.7799L58.9895 42.7617L58.8487 42.7253L58.7343 42.6707L58.6023 42.6161L58.4879 42.5524L58.3647 42.4614L58.2591 42.3704L58.1799 42.2612L58.0919 42.152L58.0127 42.0246L57.9247 41.7607L57.8631 41.6151L57.8455 41.4786L57.8367 41.3421L57.8279 41.1237L57.8455 40.9053L57.8631 40.6231Z" fill="white"/>
<path id="Vector_8" d="M67.5344 38.7947L67.3584 38.7219L67.1736 38.6946L67.0504 38.6855L66.7248 38.6946L66.4168 38.7674L66.3288 38.9222L66.32 39.1497L66.3024 39.3772L66.2936 39.6047L66.3112 39.8231V39.9414L66.2936 40.1325L66.3024 40.36L66.3112 40.5147L66.1968 40.5875L65.8976 40.5966H65.176L64.8944 40.6057L64.7536 40.5966L64.7096 40.5875V40.5056L64.7272 40.3691L64.7184 40.2326L64.7272 39.9505L64.7184 39.6684L64.7272 39.5319L64.7096 39.3772L64.7184 39.2225L64.7272 39.0313L64.6568 38.8038L64.5072 38.6855L64.0144 38.6946H63.636L63.504 38.7856L63.4072 38.9312L63.3984 39.1132V39.3044L63.4072 39.4409L63.3984 39.632L63.416 39.9141L63.3984 40.1325V40.7786L63.4072 40.9879L63.3984 41.1153L63.416 41.2518V41.3883L63.4072 41.5885L63.4248 41.7887L63.4072 42.0708L63.4248 42.271L63.4072 42.4894V43.0718L63.4248 43.2811L63.4864 43.4722L63.6624 43.545L63.8384 43.5723H64.2696L64.5688 43.5177L64.6744 43.4085L64.7184 43.2811V43.1537L64.736 42.9444L64.7184 42.726L64.736 42.5804L64.7096 42.362L64.7272 42.1527L64.7096 42.0162L64.7184 41.816L64.7272 41.5885L64.7184 41.4429L64.7448 41.3701L64.7976 41.3519H66.1528L66.276 41.4429L66.32 41.6158V41.9889L66.3024 42.1254V42.6714L66.32 42.7988L66.3112 43.0081L66.3024 43.2356L66.3376 43.3721L66.4696 43.4995L66.6896 43.5541L66.9272 43.5632H67.3408L67.4904 43.4995L67.5872 43.3084L67.6048 43.0991L67.6136 42.8716L67.6048 42.6441V42.2983L67.6224 42.0799L67.6136 41.9343V41.7978L67.6048 41.6522L67.6136 41.5066L67.6048 41.361V40.9333L67.6224 40.7149L67.6048 40.4874V40.1871L67.6224 39.8231L67.6136 39.541L67.6312 39.3226V39.1861L67.6136 38.9677L67.5344 38.7947ZM63.4776 39.3044L63.4688 39.2862L63.4864 39.268L63.4776 39.3044ZM67.5608 42.9808L67.552 42.9535L67.5696 42.9626L67.5608 42.9808Z" fill="white"/>
<path id="Vector_9" d="M75.4044 40.8318L75.3692 40.6953L75.3604 40.5588L75.3164 40.4223L75.2724 40.2948L75.2284 40.1583L75.158 40.04L75.0876 39.9126L75.0348 39.8034L74.9644 39.6851L74.7884 39.4758L74.6916 39.3757L74.586 39.2847L74.366 39.1209L74.2428 39.0481L74.1196 38.9753L73.9964 38.9116L73.8732 38.857L73.7412 38.8115L73.6092 38.766L73.486 38.7296L73.3452 38.6932L73.222 38.6659L73.09 38.6477L72.958 38.6295L72.8172 38.6204L72.6148 38.6113L72.2628 38.6295L72.1308 38.6477L71.9988 38.6659L71.8756 38.6932L71.7436 38.7296L71.6028 38.766L71.4708 38.8115L71.3652 38.857L71.2244 38.9116L71.0484 39.0117L70.7668 39.2028L70.582 39.3848L70.4764 39.4849L70.3884 39.585L70.318 39.6942L70.2212 39.8034L70.1508 39.9217L70.0804 40.04L70.0276 40.1674L69.9836 40.2948L69.9396 40.4223L69.8956 40.5588L69.878 40.6953L69.8428 40.8318L69.834 40.9683V41.1776L69.8164 41.3869L69.834 41.5234L69.8604 41.6599L69.8956 41.7964L69.9748 42.0603L70.0364 42.1877L70.098 42.306L70.1772 42.4334L70.3268 42.6609L70.4148 42.7701L70.5204 42.8702L70.6172 42.9612L70.7228 43.0431L70.8372 43.125L70.9692 43.1978L71.0924 43.2706L71.2156 43.3252L71.3476 43.3798L71.4796 43.4253L71.6116 43.4708L71.7436 43.5072L71.8756 43.5345L72.1484 43.58L72.2804 43.5982L72.4124 43.6073L72.6236 43.6164L72.8348 43.6073L72.9932 43.5982L73.1252 43.58L73.398 43.5345L73.53 43.4981L73.662 43.4617L73.9348 43.3707L74.0668 43.3252L74.19 43.2615L74.3132 43.1887L74.41 43.1159L74.5156 43.034L74.63 42.9521L74.7356 42.8611L74.9292 42.6609L74.9996 42.5517L75.07 42.4425L75.1404 42.3242L75.2108 42.1968L75.2636 42.0694L75.2988 41.9329L75.3428 41.7964L75.378 41.6599L75.4044 41.5234L75.422 41.3869V41.1776L75.4132 40.9683L75.4044 40.8318ZM74.0404 41.2322L74.0052 41.3687L73.9964 41.5052L73.9612 41.6417L73.9348 41.7782L73.8732 41.9056L73.838 42.0421L73.7764 42.1695L73.6884 42.2878L73.618 42.397L73.53 42.5062L73.442 42.6063L73.3276 42.6882L73.222 42.761L73.1076 42.8247L72.9668 42.8702L72.8436 42.8975L72.6412 42.9157L72.4476 42.8975L72.298 42.8702L72.166 42.8247L72.0516 42.761L71.946 42.6882L71.8228 42.5972L71.7524 42.4971L71.6468 42.3879L71.5764 42.2787L71.506 42.1604L71.4532 42.033L71.3828 41.8965L71.3388 41.76L71.286 41.4961L71.2684 41.3596L71.2508 41.2231L71.242 41.0138L71.2508 40.8045L71.2684 40.668L71.2772 40.5315L71.3124 40.395L71.3564 40.2584L71.4004 40.131L71.4444 39.9945L71.5148 39.8762L71.5764 39.7579L71.6468 39.6487L71.7524 39.5486L71.8404 39.4485L71.946 39.3666L72.078 39.2938L72.1836 39.2392L72.3156 39.1937L72.43 39.1664L72.6324 39.1482L72.826 39.1573L72.958 39.1937L73.09 39.2392L73.2132 39.2938L73.3188 39.3666L73.4244 39.4485L73.53 39.5395L73.706 39.7488L73.7764 39.8671L73.8908 40.1219L73.9172 40.2493L73.9612 40.3859L74.0052 40.5224V40.6589L74.0228 40.7954L74.0404 41.0047V41.2322Z" fill="white"/>
<path id="Vector_10" d="M83.0167 40.8318L82.9815 40.6953L82.9727 40.5588L82.9287 40.4223L82.8847 40.2948L82.8407 40.1583L82.7703 40.04L82.6999 39.9126L82.6471 39.8034L82.5767 39.6851L82.4007 39.4758L82.3039 39.3757L82.1983 39.2847L81.9783 39.1209L81.8551 39.0481L81.7319 38.9753L81.6087 38.9116L81.4855 38.857L81.3535 38.8115L81.2215 38.766L81.0983 38.7296L80.9575 38.6932L80.8343 38.6659L80.7023 38.6477L80.5703 38.6295L80.4295 38.6204L80.2271 38.6113L79.8751 38.6295L79.7431 38.6477L79.6111 38.6659L79.4879 38.6932L79.3559 38.7296L79.2151 38.766L79.0831 38.8115L78.9775 38.857L78.8367 38.9116L78.6607 39.0117L78.3791 39.2028L78.1943 39.3848L78.0887 39.4849L78.0007 39.585L77.9303 39.6942L77.8335 39.8034L77.7631 39.9217L77.6927 40.04L77.6487 40.1765L77.6047 40.3039L77.5607 40.4313L77.5167 40.5678L77.4991 40.7044L77.4639 40.8409L77.4551 40.9774V41.1867L77.4375 41.396L77.4551 41.5325L77.4815 41.669L77.5167 41.8055L77.5959 42.0694L77.6575 42.1968L77.7191 42.3151L77.7983 42.4425L77.9479 42.67L78.0359 42.7792L78.1415 42.8793L78.2383 42.9703L78.3439 43.0522L78.4583 43.1341L78.5903 43.2069L78.7135 43.2797L78.8367 43.3343L78.9687 43.3889L79.1007 43.4344L79.2327 43.4799L79.3647 43.5163L79.4967 43.5436L79.7695 43.5891L79.9015 43.6073L80.0335 43.6164L80.2447 43.6255L80.4559 43.6164L80.6143 43.6073L80.7463 43.5891L81.0191 43.5436L81.1511 43.5072L81.2831 43.4708L81.5559 43.3798L81.6879 43.3343L81.8111 43.2706L81.9343 43.1978L82.0399 43.125L82.1455 43.0431L82.2599 42.9612L82.3567 42.8702L82.5503 42.67L82.6207 42.5608L82.6911 42.4516L82.7615 42.3333L82.8319 42.2059L82.8847 42.0785L82.9199 41.942L82.9639 41.8055L82.9991 41.669L83.0255 41.5325L83.0431 41.396V41.1867L83.0343 40.9774L83.0167 40.8318ZM81.6439 41.2322L81.6087 41.3687L81.5999 41.5052L81.5647 41.6417L81.5383 41.7782L81.4767 41.9056L81.4415 42.0421L81.3799 42.1695L81.2919 42.2878L81.2215 42.397L81.1335 42.5062L81.0455 42.6063L80.9311 42.6882L80.8255 42.761L80.7111 42.8247L80.5703 42.8702L80.4471 42.8975L80.2447 42.9157L80.0511 42.8975L79.9015 42.8702L79.7695 42.8247L79.6551 42.761L79.5495 42.6882L79.4263 42.5972L79.3559 42.4971L79.2503 42.3879L79.1799 42.2787L79.1095 42.1604L79.0567 42.033L78.9863 41.8965L78.9423 41.76L78.8895 41.4961L78.8719 41.3596L78.8543 41.2231L78.8455 41.0138L78.8543 40.8045L78.8719 40.668L78.8807 40.5314L78.9159 40.3949L78.9599 40.2584L79.0039 40.131L79.0479 39.9945L79.1183 39.8762L79.1799 39.7579L79.2503 39.6487L79.3559 39.5486L79.4439 39.4485L79.5495 39.3666L79.6815 39.2938L79.7871 39.2392L79.9191 39.1937L80.0335 39.1664L80.2359 39.1482L80.4295 39.1573L80.5615 39.1937L80.6935 39.2392L80.8167 39.2938L80.9223 39.3666L81.0279 39.4485L81.1335 39.5395L81.3095 39.7488L81.3799 39.8671L81.4943 40.1219L81.5207 40.2493L81.5647 40.3858L81.6087 40.5223V40.6589L81.6263 40.7954L81.6439 41.0047V41.2322Z" fill="white"/>
<path id="Vector_11" d="M88.4705 42.7806L88.3737 42.7715L88.1977 42.7897H87.0361L86.8337 42.7442L86.7633 42.6532L86.7721 42.5349V42.2346L86.7633 41.9343L86.7721 41.7705V41.6522L86.7545 41.543L86.7721 41.2336V41.0971L86.7633 40.9424L86.7809 40.7149V40.4965L86.7633 40.3418L86.7809 40.1962L86.7721 40.0415L86.7809 39.8322L86.7633 39.6047L86.7809 39.4773L86.7721 39.3863L86.7809 39.2862V39.1679L86.7545 38.9767L86.6929 38.7947L86.5257 38.7128L86.3145 38.6855H86.1297L85.7953 38.6946L85.5841 38.7219L85.5313 38.7583L85.5049 38.7947L85.4697 38.8948L85.4785 38.9677L85.4697 39.0132V39.0677L85.4785 39.1406L85.4697 39.3226L85.4785 39.5592L85.4697 39.7776L85.4609 39.9687L85.4697 40.1689L85.4609 40.3418V40.5056L85.4697 40.6512V40.8059V40.9515L85.4609 41.1062V41.4065L85.4697 41.5703L85.4785 41.7068V41.8342L85.4697 41.9889L85.4785 42.1254L85.4697 42.2619V42.6714V42.7988V43.0081L85.4609 43.2265L85.4873 43.363L85.5665 43.4813L85.6457 43.5268L85.6721 43.545L85.7513 43.5541L85.8217 43.5632L86.1121 43.5723H86.2617L87.2297 43.5632L87.8105 43.5723H88.1537L88.3737 43.5177L88.5145 43.3266L88.5761 43.0718L88.5673 42.8807L88.4705 42.7806Z" fill="white"/>
<path id="Vector_12" d="M103.644 10.1837C105.439 10.1837 107.683 10.0654 110.05 9.82879C98.2759 26.6731 96.9383 31.1685 96.9383 31.9875C96.9383 32.3515 97.0703 32.5335 97.2375 32.7064C98.0471 33.5436 99.9567 34.1624 100.81 34.1624C101.057 34.1624 101.312 34.0714 101.47 33.9167C103.327 31.9966 107.225 18.8197 114.477 9.22818C120.091 8.27267 125.169 6.55275 125.169 3.90462C125.169 2.44861 124.368 0.837891 122.15 0.837891C119.898 0.837891 116.844 2.95821 113.597 6.09775C110.622 6.40715 107.551 6.56185 106.09 6.56185C102.113 6.56185 98.6015 5.73374 98.6015 4.64173C98.6015 4.25043 99.0327 4.21403 99.0327 3.88642C99.0327 3.46782 98.3727 3.31312 97.8799 3.31312C96.1199 3.31312 94.7383 4.84193 94.7383 6.45265C94.7471 9.51938 99.0327 10.1837 103.644 10.1837Z" fill="white"/>
<path id="Vector_13" d="M30.5232 3.77767C30.5232 1.96675 29.4144 0.710938 27.1968 0.710938C24.944 0.710938 22.2776 3.16797 19.0304 6.2984C19.0304 6.2984 15.4576 6.96271 11.3392 6.96271C7.02716 6.96271 3.95596 5.9071 3.95596 4.50568C3.95596 3.87777 4.62476 4.10528 4.62476 3.61387C4.62476 3.39547 4.21996 3.18617 3.59516 3.18617C1.46556 3.18617 0.101562 4.70588 0.101562 6.3257C0.101562 9.39244 4.38716 10.0567 8.99836 10.0567C10.7936 10.0567 13.0376 9.93844 15.4048 9.70184C5.19676 25.3631 2.16076 30.4956 2.21356 31.988C2.22236 32.2428 2.37196 32.4339 2.59196 32.5886C3.53356 33.2529 5.42556 34.0446 6.27916 34.0446C6.52556 34.0446 6.78956 33.9172 6.94796 33.7625C8.80476 31.8424 12.5888 18.7018 19.84 9.11033C25.2432 8.34593 30.5232 6.2529 30.5232 3.77767Z" fill="white"/>
<path id="Vector_14" d="M40.0984 16.2892C40.0984 14.7058 39.5 13.9141 38.2944 13.9141C37.6784 13.9141 37.168 14.087 36.7544 14.4328C36.3496 14.7786 36.1384 15.2609 36.1384 15.8615L36.3936 16.9262C36.3936 17.6997 35.848 19.0101 34.7656 20.8756C33.6744 22.7412 30.26 28.1466 28.0424 28.1466C25.8424 28.1466 30.5504 19.4014 31.0608 18.455C31.5712 17.5086 31.8264 16.9717 31.8264 16.8534C31.8264 16.7351 31.7384 16.5986 31.5536 16.453C31.3776 16.3074 29.6352 16.453 29.6352 16.453C29.204 16.453 28.8872 16.635 28.6672 17.0081C27.1184 19.0556 21.7856 27.3913 19.7352 27.3913C19.2424 27.3913 18.7584 27.091 20.7472 23.2235C22.736 19.3559 23.7304 17.2447 23.7304 16.8807C23.7304 16.5167 23.4928 16.2346 23.0088 16.0253C22.5248 15.816 21.9528 16.0162 21.2488 16.1072C20.844 16.1527 17.9576 17.0263 16.6288 17.4358C16.2328 17.5541 15.9688 17.9272 15.9688 18.3549C15.9776 19.0465 15.9952 20.0657 16.048 20.5753C16.0656 20.7846 16.2504 20.9393 16.4616 20.9211C17.1304 20.8574 18.5912 20.275 18.8376 20.1203C17.9312 21.54 16.0392 24.6613 15.0448 27.0091C14.0592 29.3569 13.5664 30.9586 13.5664 31.8049C13.5664 32.6603 13.7424 33.2609 14.0856 33.6158C14.4288 33.9707 14.8864 34.1527 15.4584 34.1527C16.6464 34.1527 18.1248 33.3246 19.8848 31.6775C21.6448 30.0303 23.2904 28.1648 24.8216 26.09C24.2056 27.4095 22.4632 33.7705 25.3848 33.7705C26.828 33.7705 28.8168 32.6694 29.8904 31.6957C31.492 30.2396 33.12 28.6835 34.6072 26.8089C36.0856 24.9343 37.3704 22.996 38.4616 20.9939C39.5528 19.001 40.0984 17.4358 40.0984 16.2892Z" fill="white"/>
<path id="Vector_15" d="M90.5288 25.2446C89.2352 26.0818 85.02 29.7036 81.8431 29.7036C81.1655 29.7036 80.3559 29.6126 80.3559 28.4023C80.3559 26.8462 85.7151 24.1435 86.1464 23.8523C86.6656 23.4974 86.736 23.2335 86.736 23.0241C86.736 22.8148 86.6216 22.5236 86.4016 22.1596C86.3576 22.0959 86.3224 22.0322 86.2784 21.9685C86.032 21.6136 85.6272 21.4043 85.2048 21.4043H85.196C84.9056 21.4043 84.3864 21.5317 83.6471 21.7865C82.9079 22.0413 81.4999 22.8512 81.4999 21.8775C81.4999 19.0747 85.5391 17.6915 87.1672 17.6915C87.1056 17.9372 87.0792 18.2011 87.0792 18.465C87.0792 18.7289 87.132 18.9473 87.2376 19.102C87.3432 19.2658 87.5632 19.3477 87.8888 19.3477C88.9096 19.3477 89.8248 18.9564 90.6256 18.1829C91.4264 17.4094 91.8312 16.4994 91.8312 15.4802C91.8312 15.0252 91.576 14.6794 91.0656 14.4337C90.5552 14.1879 90.0536 14.0605 89.552 14.0605C84.0872 14.0605 78.1647 18.738 78.1647 21.832C78.1647 23.3518 79.0095 24.4074 79.5815 24.6713C76.7127 25.7724 75.2695 27.4013 75.2695 29.5489C75.2695 31.1778 76.1143 32.3973 77.7951 33.189C78.7103 33.6258 79.9335 33.8442 81.4735 33.8442C85.1872 33.8442 89.156 30.7046 91.8928 27.8745C92.3856 27.4468 91.6288 24.5257 90.5288 25.2446Z" fill="white"/>
<path id="Vector_16" d="M72.6671 26.7454C74.3039 24.8435 75.6415 22.9598 76.6799 21.1034C77.7271 19.2469 78.2463 17.8364 78.2463 16.8718C78.2463 15.2884 77.6127 14.4967 76.3367 14.4967C75.7119 14.4967 75.2015 14.6787 74.8055 15.0518C74.4095 15.4249 74.2071 15.7616 74.2071 16.0619C74.2071 16.3622 74.2863 16.6443 74.4447 16.8991C74.6031 17.163 74.6823 17.4815 74.6823 17.8728C74.6823 18.2641 74.3215 19.0922 73.5911 20.3571C72.8695 21.6221 72.0247 22.8688 71.0567 24.1246C70.1151 25.344 67.0439 28.8748 65.2135 29.0386C65.0727 29.0477 64.9583 28.9294 64.9671 28.7838C65.0639 26.527 67.5543 22.8142 68.4519 20.9851C69.3759 19.1195 70.5463 17.2722 70.2911 16.8354C70.0975 16.4987 68.4079 15.5068 67.9503 15.5614C67.0703 15.6797 63.0399 23.5331 62.0807 26.1721C61.8871 26.6999 61.6583 27.4734 61.4559 28.3379C60.9367 28.8748 60.3383 29.3662 59.6519 29.803C58.9303 30.2672 58.2527 30.5038 57.6191 30.5038C56.9855 30.5038 56.4575 30.3127 56.0263 29.9213C55.5951 29.5391 55.3839 29.1023 55.3839 28.62C55.3839 28.1377 55.4367 27.6645 55.5423 27.1913C55.6479 26.7181 55.7095 26.3996 55.7183 26.2176C57.9711 23.6423 60.3119 20.7484 62.7583 17.5179C64.3071 15.4795 65.6887 13.5594 66.9119 11.7484C68.1351 9.93753 69.1823 8.16301 70.0535 6.42489C70.9247 4.68677 71.3647 3.41276 71.3647 2.59375C71.3647 1.78384 71.1095 1.16503 70.5991 0.755526C70.0887 0.336921 69.4903 0.136719 68.8215 0.136719C66.6303 0.136719 63.4623 3.17615 59.3087 9.25502C57.4695 11.9486 55.8151 15.2065 54.3455 19.0376C53.5183 21.2035 52.9199 23.2055 52.5591 25.0528C50.5703 26.436 45.8007 29.7848 43.0111 29.7848C42.3335 29.7848 41.5239 29.6938 41.5239 28.4835C41.5239 26.9274 46.8831 24.2247 47.3143 23.9335C47.8335 23.5786 47.9039 23.3147 47.9039 23.1054C47.9039 22.8961 47.7895 22.6049 47.5695 22.2409C47.5255 22.1772 47.4903 22.1135 47.4463 22.0498C47.1999 21.6949 46.7951 21.4856 46.3727 21.4856H46.3639C46.0735 21.4856 45.5543 21.613 44.8151 21.8678C44.0759 22.1226 42.6679 22.9325 42.6679 21.9588C42.6679 19.1559 46.7071 17.7727 48.3351 17.7727C48.2735 18.0184 48.2471 18.2823 48.2471 18.5462C48.2471 18.8101 48.2999 19.0285 48.4055 19.1832C48.5111 19.347 48.7311 19.4289 49.0567 19.4289C50.0775 19.4289 50.9663 19.0103 51.7935 18.2641C52.9991 17.1903 53.0255 14.1327 50.7199 14.1327C45.2551 14.1327 39.3327 18.8101 39.3327 21.9042C39.3327 23.4239 40.1775 24.4795 40.7495 24.7434C37.8807 25.8445 36.4375 27.4734 36.4375 29.621C36.4375 31.25 37.2823 32.4694 38.9631 33.2611C39.8783 33.6979 41.1015 33.9163 42.6415 33.9163C45.9591 33.9163 49.4791 31.4138 52.1455 28.8566C52.1455 28.9112 52.1455 28.9749 52.1455 29.0295C52.1455 30.4856 52.4887 31.6322 53.1751 32.4603C53.8615 33.2975 54.8647 33.7161 56.1935 33.7161C57.5135 33.7161 58.9127 33.3521 60.3911 32.615C60.6375 32.4967 60.8751 32.3602 61.1039 32.2146C61.2359 33.1519 61.6319 33.8071 62.4679 33.8071C66.3927 33.8162 71.0303 28.6473 72.6671 26.7454ZM66.1111 6.04268C66.8327 6.78889 59.2559 17.1084 57.5927 19.1468C60.8399 10.6746 65.3719 5.27828 66.1111 6.04268Z" fill="white"/>
<path id="Vector_17" d="M160.685 23.1421C159.03 23.1421 157.825 23.952 156.575 25.0258C155.774 25.7083 154.938 26.3453 154.076 26.955C152.21 28.2836 149.605 29.9035 147.476 29.9035C146.798 29.9035 145.989 29.8125 145.989 28.6021C145.989 27.046 151.348 24.3433 151.779 24.0521C152.298 23.6972 152.369 23.4333 152.369 23.224C152.369 23.0147 152.254 22.7235 152.034 22.3595C151.99 22.2958 151.955 22.2321 151.911 22.1684C151.665 21.8135 151.568 21.4404 151.145 21.4404H151.137C150.846 21.4404 150.037 22.0319 149.306 22.2867C148.567 22.5415 147.133 23.0511 147.133 22.0683C147.133 19.2654 151.172 17.8822 152.8 17.8822C152.738 18.1279 152.712 18.3918 152.712 18.6557C152.712 18.9196 152.765 19.138 152.87 19.2927C152.976 19.4565 153.196 19.5384 153.521 19.5384C154.542 19.5384 155.413 19.1016 156.258 18.3736C157.798 17.045 157.684 14.2422 155.185 14.2422C149.72 14.2422 143.797 18.9196 143.797 22.0137C143.797 23.5334 144.642 24.589 145.214 24.8529C144.185 25.2533 143.34 25.7174 142.68 26.2452C142.425 26.3271 141.606 27.0733 140.216 28.502C139.661 29.0571 139.045 29.5668 138.359 30.04C137.673 30.5132 137.101 30.7407 136.652 30.7407C135.798 30.7407 135.376 30.4222 135.376 29.7761C135.376 29.4394 135.473 29.0116 135.675 28.502C135.789 28.2199 135.895 27.9651 136.001 27.7376C136.106 27.501 136.247 27.228 136.423 26.9004C136.599 26.5819 136.749 26.3089 136.872 26.0905C136.995 25.8721 137.153 25.5991 137.347 25.2624C137.549 24.9348 137.69 24.6982 137.769 24.5708C137.857 24.4434 137.989 24.2341 138.165 23.9429C138.341 23.6608 138.456 23.4788 138.491 23.4151C138.535 23.3514 138.799 22.9419 139.301 22.1957C139.793 21.4495 140.198 20.8307 140.497 20.3393C140.805 19.8478 141.105 19.2927 141.404 18.6739C141.703 18.0551 141.853 17.5182 141.853 17.0723C141.853 16.6264 141.659 16.2169 141.272 15.8529C140.885 15.4889 140.357 15.3069 139.697 15.3069C139.037 15.3069 138.297 15.4889 137.479 15.8529C135.789 16.5991 133.73 18.3827 131.275 21.1947L132.164 19.8114C133.396 17.9095 134.012 16.6082 134.012 15.9257C134.012 15.2705 133.607 14.3696 132.437 14.3696C130.069 14.3696 128.151 15.1795 124.041 16.317C124.041 16.317 123.109 14.6244 119.395 14.6244C117.82 14.6244 116.236 15.3251 115.585 16.2988C114.731 16.772 113.825 17.3999 112.874 18.1916C111.757 19.1471 110.709 20.221 109.75 21.4131C108.782 22.6143 107.999 23.9884 107.392 25.5536C106.785 27.1188 106.477 28.5384 106.477 29.8216C106.477 31.1047 106.811 32.1148 107.48 32.8337C108.149 33.5526 109.037 33.9166 110.146 33.9166C111.255 33.9166 112.487 33.5344 113.842 32.77C115.197 32.0056 116.465 31.0228 117.635 29.8216C118.805 28.6203 119.879 27.3463 120.865 25.9813C121.841 24.6163 122.616 23.2786 123.17 21.9682C123.663 20.8125 123.936 19.8478 123.997 19.0652C125.185 18.774 126.505 18.4555 127.993 18.137C129.066 17.9095 128.591 19.1926 128.019 20.2938C127.649 20.9308 127.192 21.7407 126.629 22.7144C125.326 24.9712 124.358 26.6638 123.733 27.8013C123.1 28.9388 121.551 31.3322 121.463 31.496C121.375 31.6689 121.278 31.8782 121.173 32.133C121.076 32.3878 121.023 32.6062 121.023 32.7791C121.023 32.952 121.076 33.0885 121.19 33.1704C121.305 33.2614 121.613 33.3979 122.114 33.5981C122.616 33.7983 123.021 33.8984 123.311 33.8984C123.61 33.8984 123.989 33.5799 124.455 32.952C126.127 30.6497 128.116 28.1289 129.321 26.7457C130.527 25.3716 134.918 20.0936 135.666 20.0936C136.581 20.0936 133.396 26.0723 132.912 27.2735C132.428 28.4747 132.19 29.5486 132.19 30.495C132.19 31.4414 132.56 32.2422 133.299 32.8974C134.038 33.5526 134.777 33.8893 135.525 33.9075C136.273 33.9257 136.96 33.8165 137.585 33.5981C138.473 33.2705 139.67 32.4515 141.166 31.1502C141.527 32.0875 142.284 32.8246 143.437 33.3615C144.352 33.7983 145.575 34.0167 147.115 34.0167C150.829 34.0167 154.797 30.8772 157.534 28.047C157.578 28.0106 159.127 26.0268 160.693 26.0268C162.867 26.0268 164.504 28.2563 164.504 31.2139C164.504 38.0389 158.854 42.1067 153.398 42.1067C150.565 42.1067 148.206 41.6608 145.478 41.1421C141.782 40.4414 137.189 39.5769 129.779 39.5587C129.779 39.5132 129.779 39.4768 129.779 39.4495C129.779 39.1401 129.594 39.0127 129.154 39.0127C128.336 39.0127 119.105 38.4485 111.88 38.4485C111.519 38.4485 111.114 38.4576 111.114 39.0127C111.114 39.6588 111.123 42.6163 111.123 43.1168C111.123 43.5536 111.369 43.7083 111.686 43.7083C117.529 43.7083 124.385 42.9985 129.348 42.9985C129.682 42.9985 129.761 42.8711 129.77 42.4707C136.925 42.4889 141.201 43.2897 144.968 43.9995C147.828 44.5364 150.301 45.0096 153.389 45.0096C162.101 45.0096 167.302 37.9934 167.302 31.2048C167.302 26.6274 164.46 23.1421 160.685 23.1421ZM119.272 22.1138C118.7 23.2058 117.846 24.498 116.702 25.9813C115.558 27.4646 112.945 29.8944 111.334 29.8944C110.745 29.8944 110.445 29.4758 110.445 28.6476C110.445 26.955 111.035 24.8711 112.522 23.1967C114.203 21.2402 115.453 20.1027 116.421 19.3928C117.028 19.8205 117.802 20.0572 118.594 20.0572C119.052 20.0572 119.553 20.0025 120.108 19.9206C120.099 20.3302 119.817 21.0582 119.272 22.1138Z" fill="white"/>
<path id="Vector_18" d="M110.171 38.7305C109.827 38.7305 108.877 38.7305 108.481 38.7305C108.182 38.7305 108.059 38.8306 108.059 39.1491C108.059 39.1491 108.059 41.9155 108.059 42.9529C108.059 43.4079 108.094 43.6263 108.49 43.6263C108.833 43.6263 109.845 43.6263 110.241 43.6263C110.408 43.6263 110.531 43.4625 110.531 43.0257C110.531 42.6799 110.531 39.5131 110.531 39.14C110.523 38.8579 110.382 38.7305 110.171 38.7305Z" fill="white"/>
<path id="Vector_19" d="M106.908 38.666C106.565 38.666 105.553 38.666 105.157 38.666C104.99 38.666 104.867 38.8298 104.867 39.2666C104.867 39.3485 104.867 39.6033 104.867 39.9309C102.596 39.9309 99.2785 39.9309 99.2785 39.9309C99.2785 39.9309 98.5833 38.8025 97.4481 38.8025C96.7001 38.8025 95.1953 39.4668 95.1953 40.7954C95.1953 42.1332 95.9609 42.9613 97.4217 42.9613C98.2137 42.9613 99.1553 42.2606 99.1553 42.2606L104.858 42.1969C104.858 42.661 104.858 43.0341 104.858 43.1433C104.858 43.4254 104.99 43.5528 105.21 43.5528C105.553 43.5528 106.503 43.5528 106.899 43.5528C107.199 43.5528 107.322 43.4527 107.322 43.1342C107.322 43.1342 107.322 40.3677 107.322 39.3303C107.339 38.8844 107.304 38.666 106.908 38.666Z" fill="white"/>
</g>
</g>
</g>
</g>
</svg>
