<svg width="48" height="48" viewBox="0 0 48 48" fill="none" xmlns="http://www.w3.org/2000/svg">
<g id="Group">
<path id="Vector" d="M23.998 4C35.044 4 43.998 12.954 43.998 24C43.998 35.046 35.044 44 23.998 44C12.952 44 3.99805 35.046 3.99805 24C3.99805 12.954 12.952 4 23.998 4ZM23.998 12C23.4676 12 22.9589 12.2107 22.5838 12.5858C22.2088 12.9609 21.998 13.4696 21.998 14V24C21.9982 24.5304 22.2089 25.039 22.584 25.414L28.584 31.414C28.9613 31.7783 29.4665 31.9799 29.9908 31.9753C30.5152 31.9708 31.0169 31.7605 31.3877 31.3896C31.7585 31.0188 31.9688 30.5172 31.9734 29.9928C31.978 29.4684 31.7764 28.9632 31.412 28.586L25.998 23.172V14C25.998 13.4696 25.7873 12.9609 25.4123 12.5858C25.0372 12.2107 24.5285 12 23.998 12Z" fill="white"/>
</g>
</svg>
