<svg width="30" height="31" viewBox="0 0 30 31" fill="none" xmlns="http://www.w3.org/2000/svg">
<g id="ri:youtube-fill">
<path id="Vector" d="M15.2133 5.73828C15.8722 5.74198 17.5205 5.75802 19.2725 5.82835L19.8944 5.85549C21.6575 5.93816 23.4194 6.08128 24.2941 6.32434C25.4601 6.65253 26.3756 7.6075 26.6852 8.81909C27.1788 10.7438 27.2405 14.4971 27.2479 15.4064L27.2491 15.5939V15.8086C27.2405 16.7179 27.1788 20.4724 26.6852 22.3959C26.3719 23.6112 25.4551 24.5674 24.2941 24.8906C23.4194 25.1337 21.6575 25.2768 19.8944 25.3595L19.2725 25.3879C17.5205 25.457 15.8722 25.4742 15.2133 25.4767L14.9234 25.4779H14.6088C13.2146 25.4693 7.38359 25.4064 5.52795 24.8906C4.36324 24.5625 3.44652 23.6075 3.13683 22.3959C2.64331 20.4711 2.58162 16.7179 2.57422 15.8086V15.4064C2.58162 14.4971 2.64331 10.7426 3.13683 8.81909C3.45022 7.6038 4.36694 6.6476 5.52918 6.32557C7.38359 5.80861 13.2158 5.74568 14.61 5.73828H15.2133ZM12.4434 11.2904V19.927L19.8463 15.6087L12.4434 11.2904Z" fill="white"/>
</g>
</svg>
